<?xml version="1.0" encoding="UTF-8" standalone="no"?>
<svg
   width="72pt"
   height="72pt"
   viewBox="0 0 71.999999 72.000001"
   version="1.2"
   id="svg1355"
   sodipodi:docname="favicon.svg"
   inkscape:version="1.3.2 (091e20ef0f, 2023-11-25)"
   inkscape:export-filename="/home/cleech/Pictures/gbpb-logo-rounded.png"
   inkscape:export-xdpi="256"
   inkscape:export-ydpi="256"
   xml:space="preserve"
   xmlns:inkscape="http://www.inkscape.org/namespaces/inkscape"
   xmlns:sodipodi="http://sodipodi.sourceforge.net/DTD/sodipodi-0.dtd"
   xmlns:xlink="http://www.w3.org/1999/xlink"
   xmlns="http://www.w3.org/2000/svg"
   xmlns:svg="http://www.w3.org/2000/svg"><sodipodi:namedview
     id="namedview1357"
     pagecolor="#ffffff"
     bordercolor="#999999"
     borderopacity="1"
     inkscape:pageshadow="0"
     inkscape:pageopacity="0"
     inkscape:pagecheckerboard="true"
     inkscape:document-units="pt"
     showgrid="false"
     inkscape:snap-center="true"
     inkscape:snap-object-midpoints="true"
     inkscape:zoom="8.0104167"
     inkscape:cx="48"
     inkscape:cy="48"
     inkscape:window-width="1920"
     inkscape:window-height="975"
     inkscape:window-x="0"
     inkscape:window-y="32"
     inkscape:window-maximized="1"
     inkscape:current-layer="g6212"
     inkscape:snap-page="false"
     inkscape:snap-bbox="true"
     inkscape:object-paths="false"
     inkscape:snap-intersection-paths="true"
     inkscape:snap-smooth-nodes="true"
     inkscape:snap-midpoints="true"
     inkscape:snap-grids="false"
     inkscape:showpageshadow="2"
     inkscape:deskcolor="#d1d1d1"><inkscape:grid
       type="xygrid"
       id="grid1474"
       empspacing="6"
       originx="-23.983211"
       originy="-23.999993"
       spacingy="1"
       spacingx="1"
       units="pt"
       visible="false" /></sodipodi:namedview><defs
     id="defs1334"><linearGradient
       inkscape:collect="always"
       id="linearGradient24977"><stop
         style="stop-color:#50b8c8;stop-opacity:1"
         offset="0"
         id="stop24973" /><stop
         style="stop-color:#ce1f27;stop-opacity:1"
         offset="1"
         id="stop24975" /></linearGradient><linearGradient
       inkscape:collect="always"
       xlink:href="#linearGradient24977"
       id="linearGradient10058"
       gradientUnits="userSpaceOnUse"
       x1="2.6503906"
       y1="1.5488281"
       x2="4.9584126"
       y2="6.4968653" /><clipPath
       clipPathUnits="userSpaceOnUse"
       id="clipPath613"><rect
         style="display:inline;fill:#000000;stroke:#ffffff;stroke-width:0.3"
         id="rect613"
         width="72"
         height="72"
         x="17.987408"
         y="17.999994" /></clipPath><clipPath
       clipPathUnits="userSpaceOnUse"
       id="clipPath614"><rect
         style="display:inline;fill:#000000;stroke:#ffffff;stroke-width:0.3"
         id="rect614"
         width="72"
         height="72"
         x="17.987408"
         y="17.999994" /></clipPath></defs><g
     inkscape:groupmode="layer"
     id="layer1"
     inkscape:label="Layer 4"
     style="display:inline"
     sodipodi:insensitive="true"><g
       id="g1"
       transform="scale(0.08,0.12)"
       style="display:inline"><rect
         width="900"
         height="600"
         fill="#ed2939"
         id="rect1"
         x="0"
         y="0" /><rect
         width="600"
         height="600"
         fill="#ffffff"
         id="rect2"
         x="0"
         y="0" /><rect
         width="300"
         height="600"
         fill="#002395"
         id="rect3"
         x="0"
         y="0" /></g></g><g
     inkscape:groupmode="layer"
     id="layer3"
     inkscape:label="Layer 3"
     style="display:none"
     transform="translate(-17.987407,-17.999995)"
     sodipodi:insensitive="true"><rect
       style="fill:#39653b;fill-opacity:1;stroke-width:3.6"
       id="rect2994"
       width="54"
       height="108.00002"
       x="53.987404"
       y="-1.4317157e-05"
       clip-path="url(#clipPath614)" /><rect
       style="fill:#5ca360;fill-opacity:1;stroke-width:3.6"
       id="rect2996"
       width="54"
       height="108.00002"
       x="-0.01259208"
       y="-1.4317157e-05"
       clip-path="url(#clipPath613)" /></g><g
     inkscape:groupmode="layer"
     id="g6212"
     inkscape:label="Layer 2 copy"
     style="display:inline"
     transform="translate(-17.987407,-17.999995)"><path
       style="font-weight:bold;font-size:34.0337px;line-height:0.75;font-family:Comfortaa;-inkscape-font-specification:Comfortaa;letter-spacing:-4.14788px;word-spacing:0px;display:inline;mix-blend-mode:luminosity;fill:none;stroke:#ffffff;stroke-width:4.5703"
       d="m 43.558281,45.096831 q 2.620595,0 4.764718,1.259247 2.178156,1.225213 3.40337,3.40337 1.225213,2.144123 1.225213,4.798752 0,2.654628 -1.157146,4.832785 -1.123112,2.144123 -3.1311,3.369336 -1.973955,1.225213 -4.424381,1.225213 -1.973955,0 -3.67564,-0.816808 -1.701685,-0.816809 -2.892864,-2.280258 v 9.189098 q 0,0.782776 -0.476472,1.259247 -0.476472,0.476472 -1.259247,0.476472 -0.748741,0 -1.259247,-0.476472 -0.476471,-0.476471 -0.476471,-1.259247 V 54.5582 q 0,-2.654629 1.225213,-4.798752 1.259247,-2.178157 3.369336,-3.40337 2.144123,-1.259247 4.764718,-1.259247 z m 0,15.82567 q 1.701685,0 3.063033,-0.816808 1.395381,-0.850843 2.178156,-2.280258 0.816809,-1.463449 0.816809,-3.267235 0,-1.803786 -0.816809,-3.267235 -0.782775,-1.463449 -2.178156,-2.280258 -1.361348,-0.850843 -3.063033,-0.850843 -1.701685,0 -3.097067,0.850843 -1.361348,0.816809 -2.144123,2.280258 -0.782775,1.463449 -0.782775,3.267235 0,1.803786 0.782775,3.267235 0.782775,1.429415 2.144123,2.280258 1.395382,0.816808 3.097067,0.816808 z m 20.458454,-15.82567 q 2.450427,0 4.424381,1.225214 2.007988,1.225213 3.1311,3.403369 1.157146,2.144124 1.157146,4.798752 0,2.654629 -1.225213,4.832785 -1.225213,2.144123 -3.40337,3.40337 -2.144123,1.225213 -4.764718,1.225213 -2.620595,0 -4.764718,-1.225213 -2.110089,-1.259247 -3.369336,-3.40337 -1.225213,-2.178156 -1.225213,-4.832785 V 39.004799 q 0,-0.782775 0.476472,-1.259247 0.510505,-0.476471 1.259247,-0.476471 0.782775,0 1.259247,0.476471 0.476471,0.476472 0.476471,1.259247 v 9.189099 q 1.19118,-1.463449 2.892865,-2.280258 1.701685,-0.816809 3.675639,-0.816809 z m -0.680674,15.82567 q 1.701685,0 3.063033,-0.816808 1.395382,-0.850843 2.178157,-2.314292 0.816809,-1.463449 0.816809,-3.267235 0,-1.803786 -0.816809,-3.233201 -0.782775,-1.463449 -2.178157,-2.280258 -1.361348,-0.850843 -3.063033,-0.850843 -1.701685,0 -3.097066,0.850843 -1.361348,0.816809 -2.144123,2.280258 -0.782775,1.429415 -0.782775,3.233201 0,1.803786 0.782775,3.267235 0.782775,1.463449 2.144123,2.314292 1.395381,0.816808 3.097066,0.816808 z"
       id="text6192"
       transform="scale(1.0100219,0.99007755)"
       aria-label="pb&#10;" /><path
       style="fill:#ffffff;stroke-width:0.0334526"
       d="m 42.794543,59.622607 c -1.959151,-0.336606 -3.77855,-1.814613 -4.453107,-3.617525 -1.230439,-3.288646 0.06711,-6.868391 2.981457,-8.225417 0.80915,-0.37677 1.172675,-0.440316 2.533686,-0.442905 1.371137,-0.0025 1.717875,0.05741 2.529012,0.437744 2.126802,0.997235 3.295858,2.761119 3.448181,5.202648 0.102515,1.643167 -0.205068,2.949269 -0.982116,4.170426 -1.176183,1.848413 -3.700564,2.879913 -6.057113,2.475029 z"
       id="path6206" /><path
       style="fill:#ffffff;stroke-width:0.0334526"
       d="m 63.163418,59.876547 c -1.790181,-0.308451 -3.392747,-1.553601 -4.250412,-3.302453 -0.429355,-0.875493 -0.47072,-1.121512 -0.471168,-2.802282 -4.66e-4,-1.74217 0.0292,-1.902902 0.54473,-2.950911 0.634507,-1.289884 1.540555,-2.174042 2.863587,-2.794398 1.358916,-0.637182 3.531844,-0.637182 4.89076,0 1.254993,0.588453 2.162738,1.438859 2.784607,2.608709 2.492738,4.689307 -1.247722,10.122548 -6.362104,9.241335 z"
       id="path6194" /><path
       style="font-weight:bold;font-size:34.0337px;line-height:0.75;font-family:Comfortaa;-inkscape-font-specification:Comfortaa;letter-spacing:-4.14788px;word-spacing:0px;display:inline;stroke:#ffffff;stroke-width:0"
       d="m 43.558281,45.096831 q 2.620595,0 4.764718,1.259247 2.178156,1.225213 3.40337,3.40337 1.225213,2.144123 1.225213,4.798752 0,2.654628 -1.157146,4.832785 -1.123112,2.144123 -3.1311,3.369336 -1.973955,1.225213 -4.424381,1.225213 -1.973955,0 -3.67564,-0.816808 -1.701685,-0.816809 -2.892864,-2.280258 v 9.189098 q 0,0.782776 -0.476472,1.259247 -0.476472,0.476472 -1.259247,0.476472 -0.748741,0 -1.259247,-0.476472 -0.476471,-0.476471 -0.476471,-1.259247 V 54.5582 q 0,-2.654629 1.225213,-4.798752 1.259247,-2.178157 3.369336,-3.40337 2.144123,-1.259247 4.764718,-1.259247 z m 0,15.82567 q 1.701685,0 3.063033,-0.816808 1.395381,-0.850843 2.178156,-2.280258 0.816809,-1.463449 0.816809,-3.267235 0,-1.803786 -0.816809,-3.267235 -0.782775,-1.463449 -2.178156,-2.280258 -1.361348,-0.850843 -3.063033,-0.850843 -1.701685,0 -3.097067,0.850843 -1.361348,0.816809 -2.144123,2.280258 -0.782775,1.463449 -0.782775,3.267235 0,1.803786 0.782775,3.267235 0.782775,1.429415 2.144123,2.280258 1.395382,0.816808 3.097067,0.816808 z m 20.458454,-15.82567 q 2.450427,0 4.424381,1.225214 2.007988,1.225213 3.1311,3.403369 1.157146,2.144124 1.157146,4.798752 0,2.654629 -1.225213,4.832785 -1.225213,2.144123 -3.40337,3.40337 -2.144123,1.225213 -4.764718,1.225213 -2.620595,0 -4.764718,-1.225213 -2.110089,-1.259247 -3.369336,-3.40337 -1.225213,-2.178156 -1.225213,-4.832785 V 39.004799 q 0,-0.782775 0.476472,-1.259247 0.510505,-0.476471 1.259247,-0.476471 0.782775,0 1.259247,0.476471 0.476471,0.476472 0.476471,1.259247 v 9.189099 q 1.19118,-1.463449 2.892865,-2.280258 1.701685,-0.816809 3.675639,-0.816809 z m -0.680674,15.82567 q 1.701685,0 3.063033,-0.816808 1.395382,-0.850843 2.178157,-2.314292 0.816809,-1.463449 0.816809,-3.267235 0,-1.803786 -0.816809,-3.233201 -0.782775,-1.463449 -2.178157,-2.280258 -1.361348,-0.850843 -3.063033,-0.850843 -1.701685,0 -3.097066,0.850843 -1.361348,0.816809 -2.144123,2.280258 -0.782775,1.429415 -0.782775,3.233201 0,1.803786 0.782775,3.267235 0.782775,1.463449 2.144123,2.314292 1.395381,0.816808 3.097066,0.816808 z"
       id="text6200"
       transform="scale(1.0100219,0.99007755)"
       aria-label="pb&#10;" /><g
       id="g6204"
       transform="matrix(2.0397484,0,0,-2.1047059,-64.741458,371.69251)"
       style="fill:#333333;stroke:#ffffff;stroke-width:0.14479;stroke-miterlimit:4;stroke-dasharray:none;stroke-opacity:1"><path
         id="path6202"
         d="m 3.4589844,0.01171875 c -0.06,0.004 -0.1203997,0.01064479 -0.1777344,0.01757813 0.066667,0.13334666 0.126547,0.27015625 0.171875,0.41015624 0.064,0.19866667 0.1145573,0.4162998 0.087891,0.62695308 C 3.9716809,0.91040625 4.4114688,0.77730208 4.8554688,0.66796875 4.8874687,0.50530209 4.8779844,0.32353645 4.8339844,0.15820312 4.4006511,0.0288698 3.936319,-0.02694792 3.4589844,0.01171875 Z M 3.1660156,0.046875 C 2.4900156,0.15354166 1.8782878,0.43700293 1.3769531,0.84765625 1.4436198,1.0036562 1.530332,1.1536823 1.625,1.2910156 1.7383333,1.4563623 1.870875,1.625849 2.046875,1.7285156 2.2282083,1.629849 2.4130365,1.5404248 2.5957031,1.4550781 2.8663698,1.3297448 3.141875,1.2147217 3.421875,1.109375 3.4725417,0.87737501 3.4061719,0.62688312 3.3261719,0.40820312 3.2808385,0.28420313 3.227345,0.16420833 3.1660156,0.046875 Z m 1.7890625,0.15039062 c 0.033333,0.156 0.038372,0.32065626 0.011719,0.47265626 0.202668,0.048 0.3884531,0.15576562 0.5644531,0.25976562 0.1826667,0.108 0.3518125,0.2381927 0.5078125,0.3808594 0.3053333,0.2813333 0.5431823,0.6078489 0.7285156,0.9785156 0.196,0.3893333 0.2955625,0.8037083 0.3515625,1.234375 0.012,0.088 0.022537,0.1762917 0.033203,0.265625 v 0.00195 c 0.046667,0.4093467 0.073484,0.832948 0.021484,1.2382813 0.029333,0.026667 0.054839,0.05651 0.076172,0.089844 0.2,-0.512 0.2908073,-1.0761562 0.2441406,-1.6601562 C 7.3728071,1.9149816 6.3337446,0.66392948 4.9550779,0.19726282 Z M 1.2910156,0.91992188 C 0.86168097,1.2946019 0.51892187,1.7656019 0.29492188,2.2949219 0.45092187,2.4576019 0.65109376,2.5794792 0.87109375,2.6328125 1.1630937,2.2888125 1.538832,2.0170625 1.9375,1.7890625 1.7721667,1.6770625 1.6419167,1.5103229 1.53125,1.3476562 1.4405833,1.2116563 1.3590156,1.0692552 1.2910156,0.91992188 Z M 2.3671875,6.0742151 c -0.189142,0.052882 -0.386651,0.071458 -0.5839844,0.078125 0.1973334,0.2173333 0.4171497,0.41375 0.6464844,0.59375 1.7026653,0.3786666 3.5098073,-0.465474 4.6191406,-1.7441407 0.00667,-0.008 0.011465,-0.013358 0.019531,-0.015625 0.044,-0.3520133 0.026961,-0.7200781 -0.011719,-1.0800781 -0.1,0.1 -0.2071305,0.1880185 -0.3261718,0.2597656 C 5.3708835,4.985444 3.8959894,5.6467755 2.3671875,6.0742151 Z M 6.7597656,4.0273438 C 6.8666481,3.9576102 6.9503476,3.8529248 7.0410156,3.7675781 7.030349,3.6769115 7.0191927,3.5873935 7.0058594,3.4980469 6.9498594,3.0980469 6.8591615,2.70507 6.6738281,2.34375 6.6178281,2.2344167 6.5575208,2.128044 6.4921875,2.0253906 h -0.00195 C 6.308901,2.0760573 6.1315009,2.136247 5.9570312,2.2050781 4.4037786,2.8178615 2.8232721,3.4099492 1.3964842,4.2773438 1.2578176,4.3616441 1.1350037,4.468805 1.0136717,4.578125 c 0.021333,0.108 0.044266,0.2143594 0.072266,0.3183594 0.094667,0.364 0.2518503,0.6921875 0.4785156,0.9921875 0.041333,0.054667 0.082967,0.1081296 0.1269531,0.1601562 0.00533,-0.00133 0.010938,-0.00391 0.017578,-0.00391 0.178668,-0.004 0.3590171,-0.00627 0.53125,-0.050781 1.5907268,-0.41106 3.1435168,-1.069037 4.5195312,-1.9667933 z M 5.8515621,2.1210932 C 6.0411404,2.0468057 6.2356406,1.9884342 6.4316406,1.9296875 6.296974,1.7323675 6.1422708,1.5507187 5.9609375,1.3867188 5.8102708,1.2520521 5.6512278,1.128044 5.4765625,1.0253906 5.2965625,0.91872396 5.1109649,0.80892479 4.9042969,0.76757812 4.1322969,0.95692479 3.3717239,1.2114681 2.6503906,1.5488281 2.037056,1.8368148 1.3932187,2.1836511 0.94921875,2.7089844 c -0.064,0.5693333 -0.0563177,1.1688542 0.0410156,1.7421875 C 1.1222344,4.3351719 1.2609622,4.235138 1.4101562,4.1484375 2.8172295,3.3307502 4.3363311,2.7148464 5.8515621,2.1210932 Z M 0.25,2.4042969 c -0.196,0.5066666 -0.28494792,1.0658512 -0.23828125,1.6445312 0.11466666,1.45332 1.04273445,2.647875 2.30273435,3.171875 -0.00533,-0.1293333 -0.00127,-0.2548125 0.025391,-0.3828125 -0.00267,-0.008 -0.00329,-0.01801 -0.00195,-0.027344 C 1.715224,6.3198802 1.1791367,5.7084346 0.98046875,4.9257812 0.80180209,4.2231146 0.76055596,3.4589948 0.83789062,2.7363281 0.61922396,2.6843281 0.411332,2.5629635 0.25,2.4042969 Z M 7.0976562,5.109375 C 6.7523229,5.5027217 6.342625,5.8539583 5.890625,6.140625 6.038625,6.2619583 6.1334531,6.4274219 6.1894531,6.6074219 6.6227878,6.2367552 6.9679323,5.7714271 7.1972656,5.2460938 7.174599,5.1914271 7.144849,5.1446215 7.1035156,5.1113281 Z M 5.7910156,6.2011719 C 5.301681,6.4985052 4.7656042,6.7185238 4.2109375,6.8398438 c 0.017333,0.2199999 0.037733,0.4189091 0.1777344,0.6015624 0.00267,0.004 0.00453,0.00577 0.00586,0.00977 C 5.0358646,7.3405052 5.6163229,7.0702604 6.0976562,6.6835938 6.0469896,6.4955938 5.953681,6.3185052 5.7910156,6.2011719 Z m -3.34375,0.6621093 c -0.028911,0.1339862 -0.029446,0.265049 -0.021484,0.4003907 0.502668,0.1906666 1.0523803,0.2777552 1.6230469,0.2324219 0.077333,-0.00667 0.1518959,-0.014724 0.2265625,-0.025391 -0.1293333,-0.184 -0.154543,-0.3887552 -0.171875,-0.6074219 -0.5453346,0.1053334 -1.1055833,0.1153334 -1.6562504,3e-7 z"
         style="fill:url(#linearGradient10058);fill-opacity:1;fill-rule:nonzero;stroke:#ffffff;stroke-width:0.193053;stroke-miterlimit:4;stroke-dasharray:none;stroke-opacity:1"
         transform="matrix(0.75000002,0,0,-0.75000002,50.500057,153.76579)" /></g></g></svg>
