<svg aria-hidden="true" version="1.1" xmlns="http://www.w3.org/2000/svg" viewBox="0 0 16 16">
  <defs>
    <linearGradient id="leftGrad">
      <stop offset="40%" stop-opacity="100%" stop-color='#4e9339' />
      <stop offset="60%" stop-opacity="0%" />
    </linearGradient>
    <linearGradient id="rightGrad">
      <stop offset="40%" stop-opacity="0%" />
      <stop offset="60%" stop-opacity="100%" stop-color='#76151e' />
    </linearGradient>
  </defs>
  <g>
    <path fill="url('#leftGrad')"
      d="M8 1.001c-3.859 0-6.999 3.139-6.999 6.999s3.14 6.999 6.999 6.999 6.999-3.14 6.999-6.999c0-3.86-3.14-6.999-6.999-6.999zM8 1.591c3.534 0 6.409 2.875 6.409 6.409 0 1.015-0.244 1.972-0.666 2.825-0.123-0.205-0.245-0.41-0.379-0.634-0.29-0.458-0.578-0.918-0.849-1.366-0.395-0.666-0.879-1.527-1.255-2.182-0.005 0.066-0.217-0.248-0.431-0.561l-0.007-0.020c-0.001 0.003-0.002 0.004-0.003 0.007-0.013-0.020-0.027-0.040-0.041-0.060-0.002-0.013-0.002-0.032-0.006-0.039-0.022-0.11-0.046-0.11-0.074-0.079-0.188-0.272-0.339-0.479-0.289-0.325-0.034-0.057-0.068-0.118-0.104-0.181 0.023-0.008 0.043-0.015 0.073-0.021 0.078-0.010 0.198 0.019 0.226 0.006 0.044-0.021-0.102-0.048-0.059-0.069-0.099-0.004-0.196-0.005-0.294-0.007-0.226-0.394-0.477-0.822-0.509-0.84-0.117-0.067-0.379-0.364-1.083-1.5-0.27-0.448-0.648-1.156-0.753-1.309-0.164-0.24 0.299 0.61 0.135 0.369 0.638 1.105 1.264 2.192 1.89 3.278-0.37 0.002-0.739 0.014-1.118 0.013-0.199 0.035-1.549 0.052-1.895 0.037h-0.032c-0.189-0.005-0.419 0.003-0.579 0.032-0.022 0.006-0.047 0.013-0.069 0.020 0.053-0.097 0.106-0.194 0.155-0.284 0.223-0.426 0.456-0.872 0.687-1.314-0.125 0.188-0.243 0.365-0.348 0.524 0.253-0.434 0.507-0.869 0.591-1.044 0.507-0.946 0.17-0.439-0.084-0.11-0.169 0.245-0.001-0.121-0.254 0.27 0.169-0.29 0.255-0.434 0.424-0.725 0-0.045-0.51 0.901-0.424 0.68 0.169-0.275 0.339-0.595 0.509-0.885-0.085 0.085-0.593 0.999-0.593 0.94 0.084-0.16 0.507-0.795 0.507-0.87 0-0.015-0.168 0.274-0.253 0.42 0.507-0.901 0.761-1.41 0.253-0.614 0.132-0.227 0.309-0.52 0.464-0.785-0.076 0.127-0.157 0.262-0.209 0.35l0.204-0.35c0.002-0 0.004 0 0.006 0 0-0 0.001 0 0.001 0 0.043-0.001 0.085-0.007 0.128-0.007zM7.833 1.599c-0.056 0.077-0.113 0.155-0.171 0.236-0.254 0.39-0.508 0.757-0.635 0.975-1.029 1.756-2.061 3.514-3.085 5.263 0.010 0.011 0.076-0.076-0.003 0.073-0.253 0.464-0.507 0.81-0.76 1.276v0.044c-0.106 0.174-0.215 0.353-0.327 0.534-0.177 0.296-0.359 0.597-0.541 0.899-0.004 0.006-0.008 0.012-0.011 0.018-0.45-0.876-0.708-1.866-0.708-2.917 0-3.478 2.785-6.311 6.242-6.401zM7.838 1.599c0.002-0 0.004 0 0.006 0-0.061 0.101-0.121 0.202-0.183 0.303l0.177-0.303zM10.086 5.561c0.067 0.116 0.135 0.231 0.202 0.348-0.001 0.006-0.007 0.016-0.007 0.021-0.017 0.327-0.030 0.655-0.032 0.982 0.013 0.001 0.028-0.017 0.035 0.010 0.008 0.050-0.004 0.094-0.014 0.141-0.127-0.209-0.281-0.386-0.43-0.514-0.176-0.146-0.377-0.26-0.584-0.348 0.085 0.062 0.16 0.124 0.221 0.181-0.184-0.128-0.389-0.228-0.475-0.243-0.229-0.070-0.286-0.049-0.261-0.025s0.123 0.080 0.194 0.138c0.105 0.067-0.060 0.036 0.103 0.136-0.046-0.022-0.083-0.030-0.119-0.045 0.078 0.030 0.143 0.058 0.096 0.058-0.113-0.061-0.254-0.096-0.384-0.126 0.041 0.028 0.433 0.154 0.398 0.184-0.060-0.034-0.332-0.173-0.368-0.138-0.007 0.006 0.12 0.038 0.18 0.066-0.191-0.065-0.347-0.075-0.407-0.067s-0.025 0.028 0.143 0.080c-0.085-0.021-0.197-0.031-0.302-0.041-0.034-0.002-0.067-0.005-0.101-0.008l0.038 0.018c0.060 0.007 0.114 0.014 0.164 0.020-0.048-0.008-0.095-0.007-0.143-0.011 0.035 0.014 0.075 0.027 0.118 0.041 0.165 0.046 0.309 0.117 0.389 0.149 0.673 0.24 1.159 0.897 1.194 1.595 0.013 0.001 0.026-0.039 0.035 0.020 0.026 0.187-0.039 0.332-0.063 0.511l0.018 0.018c-0.039 0.138-0.107 0.272-0.184 0.4-0.123 0.248-0.308 0.461-0.525 0.631 0.011 0.003 0.017 0.006-0.003 0.025-0.090 0.074-0.235 0.148-0.391 0.207l-0.066 0.030c-0.016 0.011-0.019 0.020-0.020 0.025-0.072 0.025-0.139 0.034-0.2 0.049-0.398 0.099-0.846 0.085-1.249-0.1-0.402-0.179-0.762-0.513-0.968-0.958-0.102-0.183-0.16-0.389-0.187-0.591-0.033-0.303 0.043-0.694 0.173-0.958-0.043 0.007-0.009-0.165 0.058-0.317 0.062-0.153 0.141-0.294 0.060-0.258 0.133-0.17 0.383-0.376 0.388-0.399 0.001-0.039 0.018-0.111 0.11-0.201 0.076-0.082 0.211-0.186 0.431-0.287 0.106-0.003 0.212-0.009 0.316-0.015-0.003-0.008-0.004-0.015 0.008-0.018 0.049-0.007 0.117 0.002 0.188 0.004 0.011-0.001 0.022-0.003 0.032-0.004 0.009-0.005 0.010-0.012 0.011-0.017 0.033 0 0.061 0.004 0.087 0.006 0.35-0.044 0.706-0.098 1.090-0.149 0.082-0.021 0.163-0.041 0.242-0.051 0.116-0.009 0.265 0.006 0.378 0.008-0.017-0.080 0.259-0.119 0.204-0.199 0.063 0.002 0.149 0.003 0.18-0.010zM8.273 6.358c0.039 0.002 0.079 0.002 0.118 0.008-0.050-0.010-0.136-0.015-0.201-0.021 0.027 0.001 0.054 0.010 0.083 0.013zM8.19 6.345c-0.011-0-0.024-0.004-0.035-0.004l0.001 0.001c0.009 0.001 0.023 0.002 0.034 0.003zM6.037 5.758c0.009 0.003 0.017 0.005 0.015 0.011-0.004 0.001-0.013 0.001-0.021-0.001 0.002-0.003 0.004-0.006 0.006-0.010zM5.921 5.967c0.013 0.004 0.029 0.011 0.039 0.011 0.305 0.018 0.611 0.032 0.916 0.034 0.001-0.013-0.015-0.028 0.010-0.035 0.080-0.012 0.144 0.034 0.223 0.021 0.001-0.008 0.004-0.015 0.006-0.022 0.022 0.004 0.046 0.008 0.069 0.013-0.589 0.247-1.075 0.721-1.321 1.308-0.001-0.003-0.001-0.006-0.001-0.008-0.021-0.087-0.042-0.174-0.052-0.258-0.009-0.125 0.006-0.284 0.008-0.406-0.061 0.014-0.098-0.157-0.149-0.209 0.085-0.152 0.17-0.301 0.251-0.447zM5.349 6.976c0.004 0.199 0.007 0.398 0.006 0.601 0.035 0.215 0.050 1.662 0.035 2.033 0.001 0.011 0.001 0.024 0.001 0.035-0.004 0.202 0.002 0.449 0.032 0.62 0.018 0.080 0.041 0.159 0.063 0.239 0.013-0.037 0.026-0.071 0.039-0.101-0.002 0.081-0.003 0.162 0.011 0.192-0.799 0.002-1.582 0.003-2.29 0.004 0.491-0.842 0.901-1.546 1.138-1.954l0.105-0.183c0.273-0.468 0.569-0.979 0.858-1.486zM10.919 7c0.686 1.179 1.373 2.358 2.071 3.557-0.15 0.001-0.301 0.001-0.454 0.001-0.263 0.007-0.825 0.013-1.572 0.018 0.010-0.53-0.009-1.049-0.008-1.588-0.035-0.207-0.050-1.563-0.037-1.989zM10.435 9.167c0.005 0.037 0.009 0.073 0.014 0.111 0.020 0.087 0.041 0.174 0.051 0.258 0.009 0.125-0.006 0.284-0.008 0.406 0.080-0.019 0.119 0.277 0.2 0.218-0.002 0.082-0.005 0.204 0.018 0.209 0.057 0.016 0.12 0.068 0.163 0.208-0.549 0.004-1.191 0.007-1.888 0.010 0.571-0.204 1.049-0.637 1.301-1.1 0.061-0.108 0.109-0.216 0.15-0.32zM6.030 9.565c0.079 0.13 0.165 0.255 0.268 0.37 0.107 0.114 0.389 0.397 0.856 0.601 0.046 0.020 0.096 0.038 0.146 0.056-0.42 0.001-0.845 0-1.27 0.001 0.016-0.313 0.028-0.627 0.031-0.94-0.014-0.001-0.029 0.017-0.035-0.010s-0.001-0.054 0.004-0.079zM5.818 10.537c0.002 0.010-0.002 0.033-0.007 0.058h-0.011c0.003-0.034 0.006-0.061 0.018-0.058zM5.749 10.546c0 0.020 0.001 0.034 0 0.049h-0.074c0.023-0.022 0.053 0.018 0.074-0.049zM5.773 10.551c-0.003 0.013-0.001 0.029-0.001 0.044h-0.017c-0.001-0.034 0.001-0.061 0.018-0.044zM13.614 11.086c-1.092 1.979-3.198 3.324-5.614 3.324-2.344 0-4.392-1.271-5.51-3.154 0.804-0.004 1.607-0.009 2.407-0.013-0.021-0.008-0.032-0.014 0.048-0.018 0.33-0.006 0.79 0.002 1.264 0.004 0.070-0.001 0.14-0.003 0.208-0.004 0.055-0.005 0.069-0.013 0.077-0.018 0.214 0.002 0.404 0.004 0.582 0.006 2.094-0.040 4.242-0.082 6.538-0.126z">
    </path>
    <path fill="url('#rightGrad')"
      d="M8 1c-3.859 0-6.999 3.14-6.999 7.001s3.14 6.999 6.999 6.999c3.859 0 6.999-3.14 6.999-6.999s-3.14-7.001-6.999-7.001zM8 1.591c3.534 0 6.409 2.875 6.409 6.409s-2.875 6.409-6.409 6.409c-3.534 0-6.411-2.875-6.411-6.409s2.876-6.409 6.411-6.409zM8 2.54c-0.328 0-0.647 0.034-0.96 0.088v0.899c-0.551 0.118-1.066 0.336-1.524 0.634l-0.636-0.639c-0.528 0.369-0.988 0.829-1.357 1.357l0.638 0.638c-0.297 0.458-0.516 0.973-0.634 1.524h-0.899c-0.056 0.312-0.088 0.632-0.088 0.96s0.033 0.646 0.088 0.958h0.899c0.118 0.552 0.336 1.066 0.634 1.524l-0.638 0.638c0.369 0.528 0.829 0.988 1.357 1.357l0.636-0.638c0.458 0.296 0.973 0.516 1.524 0.634v0.898c0.313 0.056 0.632 0.090 0.96 0.090s0.648-0.034 0.96-0.090v-0.898c0.551-0.118 1.065-0.337 1.523-0.634l0.638 0.638c0.528-0.369 0.989-0.829 1.357-1.357l-0.638-0.638c0.297-0.458 0.516-0.972 0.634-1.524h0.899c0.055-0.312 0.088-0.63 0.088-0.958s-0.034-0.648-0.088-0.96h-0.899c-0.118-0.551-0.336-1.066-0.634-1.524l0.638-0.638c-0.368-0.528-0.829-0.988-1.357-1.357l-0.638 0.639c-0.458-0.297-0.971-0.516-1.523-0.634v-0.899c-0.312-0.055-0.632-0.088-0.96-0.088zM8 4.316c0.106 0 0.21 0.008 0.313 0.017 0.046 0.004 0.091 0.008 0.135 0.014s0.090 0.014 0.135 0.021c0.127 0.021 0.254 0.046 0.377 0.080 0.31 0.083 0.602 0.204 0.874 0.361 0.138 0.079 0.269 0.167 0.395 0.263 0.006 0.004 0.011 0.008 0.017 0.013 0.251 0.194 0.476 0.419 0.67 0.67 0.004 0.006 0.009 0.013 0.013 0.018 0.096 0.126 0.184 0.256 0.263 0.393 0.156 0.272 0.279 0.565 0.362 0.875 0.034 0.123 0.059 0.249 0.080 0.377 0.007 0.045 0.014 0.088 0.020 0.133s0.010 0.089 0.014 0.135c0.009 0.104 0.015 0.209 0.015 0.315s-0.007 0.211-0.015 0.315c-0.004 0.045-0.008 0.090-0.014 0.135s-0.013 0.089-0.020 0.133c-0.021 0.128-0.046 0.252-0.080 0.375-0.083 0.311-0.206 0.605-0.362 0.877-0.079 0.137-0.167 0.266-0.263 0.392-0.004 0.006-0.009 0.013-0.013 0.018-0.194 0.251-0.419 0.476-0.67 0.67-0.006 0.005-0.011 0.008-0.017 0.013-0.126 0.095-0.258 0.184-0.395 0.263-0.271 0.157-0.564 0.279-0.874 0.362-0.123 0.033-0.25 0.059-0.377 0.080-0.045 0.008-0.090 0.015-0.135 0.020s-0.089 0.010-0.135 0.014c-0.104 0.010-0.208 0.017-0.313 0.017s-0.211-0.007-0.315-0.017c-0.045-0.004-0.090-0.008-0.135-0.014s-0.089-0.012-0.133-0.020c-0.128-0.021-0.253-0.047-0.377-0.080-0.31-0.083-0.604-0.205-0.875-0.362-0.137-0.079-0.269-0.168-0.393-0.263-0.006-0.005-0.011-0.008-0.017-0.013-0.251-0.194-0.476-0.419-0.67-0.67-0.005-0.006-0.009-0.013-0.014-0.018-0.095-0.125-0.183-0.255-0.263-0.392-0.156-0.271-0.278-0.566-0.361-0.877-0.033-0.123-0.059-0.248-0.080-0.375-0.008-0.044-0.015-0.088-0.021-0.133s-0.009-0.090-0.014-0.135c-0.009-0.104-0.015-0.208-0.015-0.315s0.007-0.211 0.015-0.315c0.005-0.046 0.008-0.091 0.014-0.135s0.013-0.088 0.021-0.133c0.021-0.128 0.047-0.254 0.080-0.377 0.083-0.31 0.205-0.603 0.361-0.875 0.080-0.137 0.168-0.269 0.263-0.393 0.005-0.006 0.009-0.013 0.014-0.018 0.194-0.251 0.419-0.476 0.67-0.67 0.006-0.005 0.011-0.009 0.017-0.013 0.125-0.096 0.256-0.184 0.393-0.263 0.271-0.157 0.565-0.278 0.875-0.361 0.124-0.034 0.249-0.059 0.377-0.080 0.044-0.007 0.088-0.016 0.133-0.021s0.090-0.010 0.135-0.014c0.104-0.009 0.208-0.017 0.315-0.017zM8 4.68c-1.831 0-3.321 1.49-3.321 3.321s1.49 3.321 3.321 3.321c1.831 0 3.321-1.49 3.321-3.321s-1.49-3.321-3.321-3.321zM8 5.27c0.203 0 0.399 0.024 0.59 0.066v0.344c0.224 0.058 0.438 0.146 0.632 0.263l0.243-0.242c0.336 0.214 0.621 0.499 0.835 0.835l-0.243 0.242c0.117 0.195 0.205 0.408 0.263 0.632h0.344c0.042 0.191 0.066 0.388 0.066 0.591s-0.024 0.399-0.066 0.59h-0.344c-0.058 0.224-0.146 0.438-0.263 0.632l0.243 0.243c-0.214 0.336-0.499 0.621-0.835 0.835l-0.243-0.243c-0.195 0.117-0.408 0.205-0.632 0.263v0.344c-0.191 0.042-0.387 0.066-0.59 0.066s-0.401-0.024-0.591-0.066v-0.344c-0.225-0.058-0.438-0.146-0.632-0.263l-0.242 0.243c-0.336-0.214-0.621-0.499-0.835-0.835l0.242-0.243c-0.117-0.195-0.205-0.408-0.263-0.632h-0.344c-0.042-0.191-0.066-0.387-0.066-0.59s0.024-0.401 0.066-0.591h0.344c0.058-0.224 0.146-0.438 0.263-0.632l-0.242-0.242c0.214-0.336 0.499-0.621 0.835-0.835l0.242 0.242c0.195-0.117 0.407-0.205 0.632-0.263v-0.344c0.191-0.042 0.388-0.066 0.591-0.066z">
    </path>
  </g>
</svg>