<svg aria-hidden="true" version="1.1" xmlns="http://www.w3.org/2000/svg" viewBox="0 0 16 16">
  <defs>
    <linearGradient id="leftGrad">
      <stop offset="40%" stop-opacity="100%" stop-color='#cdb320' />
      <stop offset="60%" stop-opacity="0%" />
    </linearGradient>
    <linearGradient id="rightGrad">
      <stop offset="40%" stop-opacity="0%" />
      <stop offset="60%" stop-opacity="100%" stop-color='#416abb' />
    </linearGradient>
  </defs>
  <g>
    <path fill="url('#leftGrad')"
      d="M8 1c-3.859 0-6.999 3.14-6.999 7s3.14 6.999 6.999 6.999 6.999-3.14 6.999-6.999c0-3.86-3.14-7-6.999-7zM8 1.592c3.534 0 6.409 2.875 6.409 6.409s-2.875 6.409-6.409 6.409c-3.534 0-6.409-2.875-6.409-6.409s2.875-6.409 6.409-6.409zM7.937 2.865c-0.022 0-0.039 0.019-0.039 0.041s0.017 0.039 0.039 0.039c0.022 0 0.041-0.017 0.041-0.039s-0.019-0.041-0.041-0.041zM8.131 2.981c-0.035 0-0.063 0.028-0.063 0.063s0.029 0.063 0.063 0.063c0.035 0 0.063-0.029 0.063-0.063s-0.028-0.063-0.063-0.063zM7.961 3.175c-0.035 0-0.063 0.028-0.063 0.063s0.029 0.063 0.063 0.063c0.035 0 0.063-0.029 0.063-0.063s-0.028-0.063-0.063-0.063zM8.159 3.238c-0.051 0-0.091 0.040-0.091 0.091s0.040 0.093 0.091 0.093c0.051 0 0.093-0.042 0.093-0.093s-0.042-0.091-0.093-0.091zM9.019 3.238c-0.035 0-0.063 0.028-0.063 0.063s0.029 0.063 0.063 0.063 0.063-0.029 0.063-0.063c0-0.035-0.029-0.063-0.063-0.063zM8.579 3.356c-0.008 0.009-0.012 0.016-0.013 0.027-0.003 0.002-0.006 0.005-0.008 0.007-0.010-0.007-0.019-0.007-0.022 0.015-0.008-0.008-0.004-0.014-0.008-0.020-0.010 0.007-0.021 0.011-0.034 0.013-0.005-0.005-0.010-0.008-0.020-0.006v0.006c-0.029-0.001-0.062-0.013-0.096-0.028l-0.011-0.003c-0.005-0.001-0.008-0.009-0.014-0.006l-0.006-0.003c0 0.002-0.001 0.004-0.001 0.006s-0.002 0-0.003 0l0.003 0.001c0.001 0.045-0.039 0.031-0.048 0.062-0.016 0.029-0.015 0.073-0.045 0.074-0.037 0.010-0.047 0.031-0.042 0.059-0.014 0-0.027 0.002-0.044-0.004-0.039-0.023-0.088 0.008-0.132 0.022l-0.011 0.024c-0.013 0.012-0.048 0.003-0.051 0.011-0.035 0.043-0.077 0.064-0.11 0.094-0.012-0.007-0.004-0.016-0.004-0.027-0.011-0.016-0.032 0.002-0.039 0.004 0.012 0.018 0.027 0.017 0.042 0.022-0.009 0.008-0.021 0.013-0.028 0.024-0.033 0.044-0.068 0.084-0.094 0.126-0.033-0.005-0.064 0.005-0.105-0.004-0.043-0.020-0.095 0.017-0.143 0.035l-0.010 0.025c-0.014 0.012-0.053 0.010-0.056 0.018-0.046 0.061-0.115 0.088-0.143 0.145-0.033 0.049-0.066 0.098-0.086 0.15l-0.008-0.017-0.006 0.006 0.013 0.014c-0.005 0.013-0.007 0.027-0.010 0.041-0.006-0.001-0.011-0-0.013 0.006 0.003 0 0.006 0.003 0.010 0.006-0.001 0.010-0.003 0.019-0.004 0.028l-0.018-0.001c0.006 0.011 0.012 0.020 0.022 0.024 0 0.006 0 0.011 0.001 0.017-0.001 0.001-0.003 0.002-0.004 0.003-0.010 0.003-0.019 0.006-0.024 0.001-0.056-0.048-0.132 0.008-0.188 0.004-0.040-0.002-0.071 0.024-0.119 0.021-0.045-0.010-0.089 0.032-0.133 0.059l-0.007 0.027c-0.012 0.016-0.051 0.016-0.052 0.025-0.039 0.067-0.105 0.101-0.129 0.162-0.041 0.079-0.091 0.165-0.084 0.251l-0.018 0.001c0.008 0.013 0.015 0.022 0.027 0.024 0.001 0.006 0.002 0.011 0.004 0.015-0.011 0.014-0.012 0.028 0.010 0.037-0.008 0.011-0.013 0.005-0.020 0.011 0.005 0.012 0.003 0.030 0.007 0.044-0.044-0.008-0.088-0.013-0.132-0.007-0.134 0.016-0.24 0.127-0.281 0.254-0.035 0.109-0.036 0.215-0.014 0.312-0.029 0.040-0.050 0.085-0.065 0.133-0.004 0.011-0.005 0.025-0.007 0.038-0.007 0.010-0.014 0.020-0.018 0.029-0.038 0.085-0.030 0.164-0.010 0.236 0.054 0.163 0.181 0.241 0.312 0.277 0.129 0.033 0.264 0.022 0.384-0.032 0.060-0.028 0.115-0.072 0.157-0.126 0.043-0.048 0.073-0.132 0.076-0.153 0.006-0.026 0.005-0.051 0.004-0.077 0.044 0.003 0.084-0.006 0.164-0.077 0.038-0.034 0.078-0.1 0.086-0.124 0.012-0.029 0.018-0.061 0.018-0.091 0-0.016-0.003-0.034-0.007-0.051 0.011 0.011 0.028 0.019 0.039 0.027 0.027 0.014 0.058 0.021 0.090 0.018 0.036-0.001 0.111-0.022 0.152-0.055 0.105-0.067 0.134-0.213 0.138-0.27 0.020-0.011 0.038-0.026 0.055-0.041 0.027-0.026 0.045-0.054 0.059-0.083 0.007-0.005 0.014-0.011 0.021-0.017 0.012-0.002 0.027-0.006 0.053-0.020 0.052-0.026 0.080-0.089 0.091-0.126 0.017 0.008 0.035 0.021 0.052 0.025l0.015 0.003c0.056 0.010 0.129-0.006 0.176-0.042 0.038-0.037 0.059-0.075 0.074-0.11 0.007 0.026 0.016 0.053 0.031 0.076-0.001 0.003 0.049-0.001 0.048-0.003-0.038-0.032-0.051-0.073-0.058-0.112 0.003-0.001 0.007-0.002 0.010-0.003 0.007-0.001 0.013-0.001 0.020-0.003 0.004 0.001 0.007 0.003 0.010 0.004l0.048 0.014 0.048-0.039c0.011-0.010 0.024-0.029 0.034-0.052 0.003-0.003 0.009-0.003 0.013-0.006-0.006 0.007-0.016 0.013-0.017 0.021-0.004 0-0.002 0.017-0.004 0.018-0.001-0.009 0-0.015 0-0.015l-0.003 0.010c-0.001-0.001-0.002 0.001-0.003-0.001l0.008 0.041h-0.001c-0.002 0.002 0 0.015 0.022 0.027 0.045 0.024 0.137 0.028 0.204 0.021 0.080 0.003 0.131-0.001 0.216-0.028 0.066-0.026 0.035 0.011-0.034 0.052-0.067 0.041-0.179 0.069-0.223 0.076 0.119 0.006 0.296-0.024 0.451-0.16 0.078-0.066 0.145-0.158 0.188-0.268 0.028-0.073 0.049-0.163 0.035-0.251 0.005-0.001 0.010 0.001 0.014-0.001 0.050-0.021 0.084-0.060 0.107-0.101 0.046-0.083 0.064-0.18 0.046-0.275-0.003-0.019-0.014-0.035-0.021-0.053-0.004-0.011-0.008-0.020-0.013-0.031-0.011-0.026-0.025-0.051-0.042-0.073-0.004-0.004-0.004-0.007-0.007-0.011-0.010-0.009-0.016-0.014-0.024-0.020-0.011-0.011-0.018-0.021-0.030-0.031 0.006-0.001 0.010 0.001 0.017 0.001 0.016-0.012-0.005-0.030-0.008-0.038-0.011 0.011-0.014 0.021-0.015 0.031-0.050-0.038-0.107-0.064-0.169-0.077-0.005-0.021-0.015-0.041-0.015-0.072 0.008-0.041-0.040-0.071-0.069-0.098l-0.024 0.006c-0.014-0.005-0.019-0.036-0.027-0.034-0.059-0.005-0.090-0.046-0.135-0.046-0.059-0.009-0.126-0.029-0.181-0.007l-0.003-0.017zM9.173 3.422c-0.051 0-0.091 0.042-0.091 0.093s0.040 0.091 0.091 0.091 0.093-0.040 0.093-0.091c0-0.051-0.042-0.093-0.093-0.093zM8.583 3.473c0.023 0 0.041 0.019 0.041 0.042s-0.018 0.039-0.041 0.039c-0.022 0-0.041-0.017-0.041-0.039s0.019-0.042 0.041-0.042zM8.763 3.515c0.052 0 0.093 0.040 0.093 0.091s-0.041 0.093-0.093 0.093c-0.051 0-0.093-0.042-0.093-0.093s0.042-0.091 0.093-0.091zM8.915 3.643c0.022 0 0.039 0.017 0.039 0.039s-0.017 0.042-0.039 0.042-0.041-0.019-0.041-0.042c0-0.022 0.019-0.039 0.041-0.039zM7.185 3.89c-0.051 0-0.091 0.040-0.091 0.091s0.040 0.093 0.091 0.093c0.051 0 0.093-0.042 0.093-0.093s-0.042-0.091-0.093-0.091zM6.896 3.901c-0.022 0-0.039 0.019-0.039 0.041s0.017 0.039 0.039 0.039 0.041-0.017 0.041-0.039c0-0.022-0.019-0.041-0.041-0.041zM4.884 3.946c-0.101 0.050-0.096 0.197-0.141 0.243s-1.031 0.471-1.613 1.635c-0.581 1.163-0.701 1.997-0.708 2.102s-0.117 0.294-0.035 0.341 0.512 0.115 0.68 0.23c0.111 0.076 0.357 0.284 0.511 0.417l-0.579 0.913s-0.212 0.628 1.498 1.616c1.711 0.987 2.149 0.489 2.149 0.489l1.187-2.269-1.603-3.061c-0.022-0.004-0.046-0.003-0.069-0.008-0.26-0.071-0.442-0.237-0.518-0.469-0.048-0.171-0.039-0.313 0.022-0.45 0.001-0.005 0.004-0.008 0.006-0.013 0.002-0.009 0.004-0.017 0.007-0.025 0.011-0.034 0.024-0.068 0.039-0.101-0.010-0.115 0.004-0.229 0.039-0.343 0.037-0.116 0.104-0.215 0.187-0.292-0.089-0.020-0.161-0.057-0.222-0.093-0.122-0.070-0.022-0.338-0.066-0.417s-0.671-0.495-0.773-0.445zM11.116 3.946c-0.101-0.050-0.727 0.366-0.771 0.445s0.054 0.347-0.067 0.417c-0.097 0.056-0.21 0.12-0.391 0.108l-0.347-0.548c-0.022 0.035-0.044 0.067-0.070 0.094-0.009 0.064-0.026 0.13-0.052 0.197-0.060 0.154-0.153 0.288-0.27 0.389-0.231 0.201-0.486 0.232-0.617 0.232l-0.045-0.001c-0.055-0.003-0.106-0.020-0.149-0.049-0.052 0.024-0.105 0.029-0.139 0.029-0.072 0.043-0.157 0.070-0.244 0.076-0.027 0.025-0.060 0.046-0.097 0.065-0.015 0.021-0.032 0.042-0.051 0.060-0.030 0.109-0.095 0.251-0.236 0.347-0.067 0.050-0.152 0.083-0.225 0.098-0.032 0.053-0.077 0.113-0.126 0.157-0.029 0.026-0.062 0.053-0.1 0.076-0.024 0.062-0.062 0.143-0.118 0.207-0.060 0.078-0.154 0.152-0.258 0.199-0.059 0.027-0.117 0.045-0.178 0.058l2.79 5.33s0.438 0.498 2.148-0.489c1.71-0.988 1.498-1.616 1.498-1.616l-0.579-0.913c0.155-0.133 0.4-0.341 0.51-0.417 0.169-0.115 0.599-0.183 0.68-0.23s-0.027-0.237-0.034-0.341c-0.006-0.105-0.126-0.938-0.708-2.102s-1.568-1.588-1.613-1.635c-0.045-0.046-0.039-0.193-0.14-0.243zM6.856 4.036c-0.035 0-0.063 0.028-0.063 0.063s0.028 0.063 0.063 0.063 0.063-0.029 0.063-0.063c0-0.035-0.028-0.063-0.063-0.063zM6.675 4.060c-0.022 0-0.041 0.017-0.041 0.039s0.019 0.041 0.041 0.041c0.022 0 0.041-0.019 0.041-0.041s-0.019-0.039-0.041-0.039zM7.029 4.099c-0.035 0-0.063 0.029-0.063 0.065s0.029 0.063 0.063 0.063 0.065-0.029 0.065-0.063c0-0.035-0.030-0.065-0.065-0.065zM7.029 4.521c0.052 0 0.093 0.040 0.093 0.091s-0.041 0.093-0.093 0.093c-0.051 0-0.091-0.042-0.091-0.093s0.040-0.091 0.091-0.091zM6.793 4.578c0.035 0 0.063 0.029 0.063 0.063s-0.029 0.063-0.063 0.063c-0.035 0-0.065-0.028-0.065-0.063s0.029-0.063 0.065-0.063zM6.833 4.761c0.022 0 0.041 0.017 0.041 0.039s-0.019 0.041-0.041 0.041c-0.022 0-0.039-0.019-0.039-0.041s0.017-0.039 0.039-0.039zM4.942 4.917c0.108-0.002 0.206 0.029 0.294 0.080 0.219 0.127 0.327 0.469 0.378 0.709l-1.62 2.555c-0.151-0.044-0.378-0.117-0.5-0.187-0.189-0.109-0.594-0.597 0.149-1.884 0.557-0.966 0.976-1.269 1.299-1.274zM11.058 4.917c0.323 0.006 0.743 0.308 1.301 1.274 0.743 1.287 0.337 1.775 0.148 1.884-0.121 0.070-0.35 0.143-0.5 0.187l-1.62-2.555c0.051-0.241 0.16-0.583 0.379-0.709 0.088-0.051 0.184-0.082 0.292-0.080z" />

    <path fill="url('#rightGrad')"
      d="M8 1c-3.859 0-6.999 3.14-6.999 7s3.14 6.999 6.999 6.999c3.859 0 6.999-3.14 6.999-6.999s-3.14-7-6.999-7zM8 1.59c3.534 0 6.409 2.876 6.409 6.41s-2.875 6.409-6.409 6.409c-3.534 0-6.41-2.875-6.41-6.409s2.876-6.41 6.41-6.41zM8.749 2.775l-0.84 1.003 1.476 0.27-1.083 0.91 0.586 0.593 0.437 0.367c-0.301 0.361-0.694 0.814-1.125 1.308 0.251 0.286 0.512 0.583 0.774 0.879 0.453-0.564 0.873-1.082 1.201-1.474l0.525 0.441 1.562 1.079 1.196-1.425-1.33-1.354-1.814-1.521zM5.879 3.707l-0.617 0.518c-0.087-0.104-0.103-0.119-0.103-0.119s-0.214-0.15-0.586 0.163c-0.372 0.312-0.263 0.549-0.263 0.549s0.014 0.017 0.101 0.119l-1.193 1 1.427 1.701 1.191-1c1.427 1.7 4.577 5.76 4.677 5.808s0.493-0.128 0.681-0.287c0.188-0.157 0.429-0.514 0.399-0.621s-3.48-3.913-4.907-5.614l2.027-1.701zM7.022 8.561c-1.317 1.488-2.585 2.907-2.603 2.971-0.030 0.107 0.211 0.464 0.399 0.621s0.581 0.333 0.681 0.285c0.058-0.027 1.14-1.402 2.317-2.883-0.266-0.334-0.533-0.669-0.794-0.995z" />
  </g>
</svg>