<svg aria-hidden="true" style="position: absolute; width: 0; height: 0; overflow: hidden;" version="1.1" xmlns="http://www.w3.org/2000/svg" xmlns:xlink="http://www.w3.org/1999/xlink">
<defs>
<symbol id="pbicon-1" viewBox="0 0 32 32">
<path d="M8.2 32l16.25-0.288 0.215-1.583-5.896-0.432c0 0 0.215-1.151 0.215-2.517v-21.644c0-3.524 0.575-5.394 0.575-5.394l-0.144-0.144c0 0-3.955 1.509-12.080 3.738l0.288 2.158 4.818-1.151c1.295-0.288 1.509-0.144 1.509 2.733v19.703c0 1.366-0.144 2.66-3.236 2.877l-2.517 0.144z"></path>
</symbol>
<symbol id="pbicon-2" viewBox="0 0 32 32">
<path d="M5.529 30.242l0.512 1.758h19.259l1.172-8.495h-1.758c-0.879 2.856-1.465 4.321-5.125 4.321h-8.567c4.321-4.467 13.034-13.18 13.034-20.064 0-5.493-4.321-7.762-8.202-7.762-6.151 0-10.25 5.418-10.25 5.418l1.172 1.319c1.904-1.758 4.393-2.784 6.662-2.784 2.93 0 5.418 1.83 5.418 5.639 0 8.127-8.495 15.962-13.327 20.65z"></path>
</symbol>
<symbol id="pbicon-3" viewBox="0 0 32 32">
<path d="M6.366 28.406c0 2.59 5.106 3.594 7.981 3.594 6.040 0 11.29-4.387 11.29-9.564 0-4.243-3.882-7.55-9.061-7.91 2.948-1.295 6.974-4.531 6.974-8.413 0-4.17-3.667-6.113-7.335-6.113-4.889 0-8.342 4.243-8.342 4.243l1.151 1.366c0 0 2.373-1.941 5.25-1.941 2.302 0 4.243 1.295 4.243 3.955 0 3.38-2.948 6.328-7.047 6.759v2.59c0 0 0.646-0.078 1.439-0.078 4.818 0 7.335 2.804 7.335 6.399 0 3.38-2.229 6.759-5.538 6.759-3.594 0-3.955-3.594-6.472-3.594-1.078 0-1.87 0.863-1.87 1.941z"></path>
</symbol>
<symbol id="pbicon-4" viewBox="0 0 32 32">
<path d="M5.281 23.251h12.175v4.082c0 1.676-1.239 2.843-3.281 3.063v1.604l12.030-0.292 0.146-1.384-4.082-0.438c0 0 0.218-1.093 0.218-2.551v-4.082h4.156l0.729-3.206h-4.885v-14.798c0-3.572 0.292-5.103 0.292-5.103l-0.218-0.146-3.426 0.801-14.507 19.829zM17.456 20.045h-9.622l9.842-13.56c-0.146 0.875-0.218 2.114-0.218 3.061z"></path>
</symbol>
<symbol id="pbicon-5" viewBox="0 0 32 32">
<path d="M7.22 28.373c0 2.54 3.991 3.627 6.748 3.627 6.605 0 10.813-4.862 10.813-9.868 0-9.361-14.004-11.32-14.004-11.32l0.436-6.531h11.465l0.652-4.282c0 0-1.452 0.29-3.265 0.29h-10.884l-0.797 15.021c0 0 11.393 1.161 11.393 8.418 0 3.482-2.468 6.314-5.079 6.314-2.83 0-3.482-3.627-5.66-3.627-1.016 0-1.814 0.797-1.814 1.959z"></path>
</symbol>
<symbol id="pbicon-6" viewBox="0 0 32 32">
<path d="M15.929 32c6.903 0 10.497-6.040 10.497-11.145 0-4.457-2.948-9.061-8.7-9.061-2.158 0-3.667 0.79-3.667 0.79l0.358 1.87c4.745-1.582 6.759 4.243 6.759 7.981 0 3.594-1.582 7.405-4.601 7.405-3.523 0-5.537-5.752-5.537-11.577-0.144-7.261 3.306-15.747 12.079-16.322l-0.288-1.941c-11.504 0-17.256 10.209-17.256 18.982 0 6.615 3.379 13.013 10.353 13.013z"></path>
</symbol>
<symbol id="pbicon-7" viewBox="0 0 32 32">
<path d="M19.426 11.519c-3.935 9.185-6.197 13.266-7.653 15.308-1.238 1.896-1.822 2.405-1.822 3.498 0 0.875 0.801 1.676 1.822 1.676 1.53 0 1.896-1.458 3.063-4.009l9.475-22.377c0.875-1.968 2.405-4.301 2.405-4.301l-0.146-1.313c0 0-1.021 0.146-2.771 0.146h-16.984l-1.53 7.799h1.822c1.021-2.917 1.676-2.988 4.81-2.988h7.361c0.947 0 2.113-0.146 2.988-0.218z"></path>
</symbol>
<symbol id="pbicon-8" viewBox="0 0 32 32">
<path d="M6.258 24.377c0 5.394 4.89 7.623 9.421 7.623 5.753 0 10.067-3.595 10.067-8.199 0-4.026-3.595-6.975-7.048-9.779 3.092-1.87 6.041-4.026 6.041-7.623 0-3.812-3.236-6.399-8.269-6.399-5.538 0-9.206 2.948-9.206 7.118 0 3.524 2.59 6.114 5.465 8.486-3.236 2.014-6.472 4.387-6.472 8.772zM10.786 23.728c0-2.948 1.366-5.321 3.307-6.975 3.38 2.661 6.687 5.106 6.687 8.269 0 2.804-2.229 4.819-5.033 4.819-3.092 0-4.963-2.59-4.963-6.114zM12.225 5.967c0-2.158 1.439-3.812 3.955-3.812 2.734 0 3.955 1.87 3.955 4.602 0 2.517-1.222 4.602-2.948 6.114-2.661-2.229-4.963-4.314-4.963-6.904z"></path>
</symbol>
<symbol id="pbicon-CP" viewBox="0 0 32 32">
<path d="M16.26 0.002c-0.503-0.009-1.009 0.009-1.521 0.048-0.251 0.030-0.504 0.064-0.742 0.083 0.278 0.558 0.531 1.14 0.726 1.74 0.278 0.85 0.487 1.77 0.377 2.675 1.839-0.669 3.707-1.239 5.602-1.697 0.14-0.697 0.096-1.464-0.099-2.174-1.379-0.418-2.836-0.65-4.342-0.674zM13.511 0.201c-2.898 0.46-5.489 1.676-7.634 3.418 0.292 0.669 0.651 1.292 1.055 1.892 0.489 0.697 1.044 1.425 1.797 1.871 0.766-0.432 1.561-0.821 2.34-1.17 1.156-0.543 2.329-1.034 3.528-1.478 0.209-0.989-0.069-2.064-0.418-2.984-0.195-0.529-0.418-1.044-0.669-1.547zM21.12 0.838c0.14 0.669 0.168 1.365 0.057 2.007v0.005c0.864 0.209 1.641 0.683 2.393 1.129 0.781 0.46 1.505 1.002 2.174 1.614 1.296 1.198 2.315 2.595 3.108 4.17 0.835 1.659 1.251 3.429 1.489 5.268 0.055 0.361 0.099 0.738 0.142 1.129v0.011c0.209 1.742 0.322 3.538 0.099 5.268 0.126 0.111 0.235 0.237 0.319 0.377 0.85-2.174 1.241-4.586 1.044-7.080-0.515-6.578-4.947-11.902-10.828-13.893zM20.911 3.252c-3.289 0.821-6.533 1.896-9.599 3.344-2.62 1.212-5.369 2.703-7.263 4.933v0.016c-0.265 2.425-0.235 4.986 0.182 7.425 0.558-0.487 1.128-0.947 1.782-1.296 0.069-0.432 0.143-0.846 0.241-1.223 0.432-1.547 1.237-2.593 2.436-3.108l0.92-0.402c0.529-0.237 1.129-0.35 1.756-0.35 1.143 0 2.439 0.393 3.887 1.143 0.543-0.627 1.007-1.227 1.368-1.797-0.335-0.377-0.533-0.434-0.616-0.434-0.028 0-0.055 0.011-0.083 0.011-0.697 0.306-1.365 0.46-2.007 0.46-0.821 0-1.616-0.265-2.34-0.752l-0.083-0.062-0.251-0.597 0.182-0.6 0.361-0.166c0.069-0.030 0.14-0.042 0.209-0.042 0.251 0 0.464 0.168 0.616 0.517l0.136 0.559c0.835 0.237 1.648 0.179 2.414-0.158l2.466-1.129c0.126-0.726 0.055-1.404-0.209-2.016l-0.166-0.391c-0.014-0.060-0.060-0.11-0.088-0.152l-0.152 0.611-0.402 0.166-0.543-0.324-0.308-0.72 0.11-0.517-0.527-0.182 1.296-0.554 0.083 0.011c0.558 0.101 0.961 0.446 1.212 1.044l0.292 0.653c0.265 0.612 0.379 1.253 0.35 1.922l2.241-1.030c0.306-0.126 0.641-0.198 1.004-0.198 0.752 0 1.63 0.296 2.634 0.867 0.069 0.011 0.115 0.037 0.158 0.078 0.111 0.071 0.22 0.142 0.345 0.225 0.835-0.223 1.63-0.575 2.466-0.825-0.572-0.835-1.227-1.613-2.007-2.31-0.641-0.572-1.32-1.101-2.059-1.547-0.766-0.446-1.563-0.92-2.441-1.103zM5.512 3.921c-1.839 1.602-3.301 3.611-4.248 5.868 0.669 0.683 1.517 1.214 2.452 1.437 1.241-1.464 2.843-2.62 4.556-3.595-0.71-0.474-1.266-1.186-1.74-1.898-0.389-0.572-0.74-1.172-1.020-1.813zM27.666 8.633c-0.766 0.223-1.501 0.545-2.267 0.768 0.363 0.864 0.165 2.105-0.6 3.804l1.772 0.078 2.158 1.411 0.308 0.696-0.016 0.073c-0.028 0.612-0.096 1.184-0.193 1.713 0.446-0.292 0.805-0.742 1.181-1.119-0.041-0.389-0.080-0.763-0.136-1.14-0.237-1.713-0.627-3.39-1.421-4.923-0.237-0.473-0.503-0.917-0.768-1.363h-0.016zM20.885 9.224v0.005c-0.237 0-0.515 0.062-0.795 0.182l-0.701 0.292c-0.014 0.195 0.055 1.032 1.464 4.264l0.099-0.35 0.142-0.067c0.055-0.030 0.122-0.032 0.177-0.032 0.292 0 0.49 0.22 0.685 0.597l0.795-0.361c0.335-0.14 0.489-0.391 0.517-0.795 0.028-0.474-0.143-1.142-0.49-1.949-0.529-1.198-1.14-1.788-1.892-1.788zM1.071 10.249c-0.835 2.159-1.2 4.54-1.020 7.008 0.489 6.201 4.459 11.288 9.824 13.518-0.027-0.543-0.016-1.087 0.11-1.63-0.014-0.041-0.011-0.069-0.011-0.11-2.648-2.090-4.935-4.698-5.785-8.041-0.752-2.995-0.945-6.243-0.611-9.321-0.933-0.223-1.811-0.738-2.508-1.421zM17.217 12.782c-0.292 0.46-0.639 0.933-1.030 1.421l-0.82 2.816-0.391-0.391c-1.965-1.908-3.498-2.883-4.556-2.883-0.083 0-0.168 0-0.251 0.011 0.237 0.821-0.195 1.154-0.501 1.28l-0.152 0.073-0.391-0.225-0.251-0.586c-0.961 0.612-1.046 2.381-0.267 5.293l0.742 1.713c1.198 2.76 2.561 4.17 4.039 4.17h0.126l0.57-0.251c1.436-0.627 1.882-1.91 1.338-3.903l-0.292-0.945c-0.947-1.728-1.531-1.991-1.782-1.991-0.055 0-0.111 0.005-0.166 0.037l-0.501 0.225c-0.126 0.041-0.487 0.211-0.166 1.312l0.142 0.319 1.797 1.906 0.471 1.076-0.209 1.421-0.418-0.267c-2.020-1.241-2.425-1.798-2.551-2.090l-0.303-0.71c-0.612-2.034-0.322-3.314 0.862-3.83l0.308-0.142c0.404-0.181 0.821-0.267 1.253-0.267 1.198 0 2.494 0.701 3.846 2.080l0.042 0.037 0.094 0.241c0.278 1.073 0.124 2.326-0.434 3.705l-0.011 0.032c-0.752 1.324-1.853 2.299-3.303 2.926-0.46 0.195-0.949 0.303-1.437 0.303-0.809 0-1.675-0.276-2.565-0.805-0.809 0.209-1.657 0.29-2.492 0.319 0.835 0.933 1.784 1.768 2.76 2.535v0.005c7.259 1.616 14.955-1.977 19.678-7.425 0.041-0.041 0.067-0.064 0.094-0.073 0.181-1.505 0.115-3.076-0.053-4.609-0.418 0.432-0.837 0.89-1.395 1.113-0.46 1.784-1.351 2.983-2.66 3.553l-1.338 0.57-4.431 1.772c-0.586 0.251-1.004 0.765-1.296 1.574l0.444 0.726-0.126 0.46-0.627 0.267-0.559-0.276-0.262-0.6 0.011-0.11c0.363-1.659 1.338-2.86 2.883-3.584 0.126-0.515-0.066-1.821-1.473-5.068l-0.616-1.437c-0.515-1.198-0.989-2.133-1.421-2.816zM24.145 14.549c-0.32 0-0.673 0.081-1.076 0.251v0.005c-0.543 0.237-0.975 0.361-1.296 0.361-0.195 0-0.333-0.039-0.444-0.099l0.611 1.437c1.533 3.526 2.105 4.358 2.299 4.567l0.083-0.037c1.018-0.446 1.66-1.034 1.938-1.745 0.265-0.726 0.182-1.616-0.276-2.675l-0.407-0.905c-0.335-0.781-0.805-1.159-1.432-1.159zM5.961 18.238c-0.598 0.349-1.115 0.805-1.63 1.28 0.097 0.458 0.191 0.904 0.303 1.349 0.404 1.547 1.076 2.956 2.037 4.238 0.181 0.223 0.363 0.457 0.543 0.68 0.028-0.011 0.055-0.011 0.083-0.011 0.752-0.030 1.519-0.067 2.257-0.22-0.71-0.501-1.453-1.158-2.205-1.981l-1.212-1.004-0.011-0.126c-0.209-1.602-0.251-3.007-0.166-4.206zM30.259 21.776c-1.476 1.687-3.214 3.179-5.153 4.406 0.641 0.515 1.030 1.225 1.28 1.991 1.853-1.575 3.314-3.567 4.291-5.811-0.097-0.223-0.221-0.43-0.402-0.57v-0.005zM24.689 26.426c-2.090 1.267-4.361 2.218-6.73 2.733 0.069 0.933 0.154 1.784 0.752 2.551 0.012 0.009 0.025 0.027 0.027 0.053 2.731-0.474 5.209-1.627 7.257-3.271-0.223-0.807-0.609-1.563-1.306-2.064zM10.434 29.242c-0.126 0.572-0.126 1.143-0.083 1.729 2.131 0.807 4.469 1.172 6.907 0.977 0.32-0.030 0.657-0.058 0.977-0.11v-0.005c-0.558-0.781-0.653-1.648-0.736-2.581-2.328 0.446-4.71 0.474-7.064-0.011z"></path>
</symbol>
<symbol id="pbicon-CP2" viewBox="0 0 32 32">
<path d="M15.999 0c0 0.907-1.499 0.572-1.499 3.502-3.036 0-4.648 1.469-4.648 2.906-2.129 0-2.236-1.694-2.236-1.694l-0.336 0.162c0.032 1.135-0.732 2.343-2.763 2.873-2.042 0.53-2.844-0.431-2.844-1.738 0-1.297 0.401-2.129 1.406-2.333-0.605 1.837 2.84 2.073 2.84 0.668s-1.307-2.171-2.873-2.171c-1.566 0-2.906 1.23-2.906 3.068s0.766 3.003 0.766 4.571c4.939 1.61 5.912 7.718 5.912 9.328 0 1.599 1.005 1.933 1.005 1.933s0.43-1.277 1.434-1.277c0.994 0 1.362 1.71 1.362 1.71s-0.065-0.899 0.972-0.899c1.038 0 1.438 0.962 1.438 1.297 0.703 0 0.895 0.303 0.895 0.303v0.434c0.767 0 0.843 0.604 0.843 0.604s-0.106 0.474-0.106 2.808c0 2.344-3.934 2.204-3.934 2.204v1.677c0 0-1.212-0.001-1.212 0.928 0 0.94 6.483 1.135 6.483 1.135s6.475-0.195 6.475-1.135c0-0.929-1.2-0.928-1.2-0.928v-1.677c0 0-3.946 0.14-3.946-2.204 0-2.333-0.097-2.808-0.097-2.808s0.067-0.604 0.835-0.604v-0.434c0 0 0.206-0.303 0.907-0.303 0-0.335 0.397-1.297 1.434-1.297 1.027 0 0.965 0.899 0.965 0.899s0.365-1.71 1.37-1.71c1.005 0 1.439 1.277 1.439 1.277s0.992-0.334 0.992-1.933c0-1.61 0.973-7.718 5.912-9.328 0-1.566 0.778-2.734 0.778-4.571s-1.338-3.068-2.906-3.068c-1.577 0-2.877 0.767-2.877 2.171s3.438 1.168 2.844-0.668c0.994 0.206 1.393 1.038 1.393 2.333 0 1.308-0.802 2.268-2.832 1.738-2.042-0.53-2.808-1.738-2.775-2.873l-0.336-0.162c0 0-0.097 1.694-2.236 1.694 0-1.437-1.599-2.906-4.635-2.906 0-2.928-1.503-2.593-1.503-3.502zM15.59 4.583l0.065 0.012c0.388 0.064 0.671 0.299 0.855 0.721l0.203 0.465c0.173 0.421 0.261 0.874 0.239 1.349l1.576-0.721c0.215-0.086 0.457-0.141 0.706-0.141 0.541 0 1.142 0.206 1.856 0.616 0.043 0 0.076 0.021 0.097 0.052 0.086 0.054 0.165 0.1 0.251 0.154l0.312 0.247c0.259 0.605 0.119 1.481-0.421 2.67l1.252 0.065 1.515 0.992 0.214 0.478-0.012 0.060c-0.022 0.421-0.062 0.819-0.137 1.187l-0.097 0.421c-0.313 1.264-0.943 2.096-1.872 2.495l-0.94 0.413-3.112 1.239c-0.41 0.173-0.714 0.541-0.907 1.102l0.303 0.511-0.085 0.324-0.434 0.195-0.401-0.207-0.183-0.421 0.012-0.077c0.259-1.167 0.939-2.008 2.030-2.516 0.086-0.368-0.054-1.286-1.038-3.566l-0.442-1.017c-0.357-0.832-0.693-1.502-0.984-1.978-0.216 0.324-0.453 0.659-0.733 1.005l-0.575 1.978-0.28-0.268c-1.373-1.351-2.451-2.034-3.197-2.034-0.065 0-0.122 0.001-0.187 0.012 0.162 0.572-0.139 0.808-0.345 0.895l-0.11 0.056-0.28-0.162-0.174-0.413c-0.67 0.432-0.733 1.677-0.183 3.72l0.519 1.208c0.843 1.945 1.804 2.929 2.84 2.929h0.089l0.397-0.174c1.016-0.443 1.318-1.338 0.94-2.744l-0.203-0.66c-0.67-1.222-1.072-1.401-1.256-1.401-0.043 0-0.074 0.010-0.118 0.021l-0.357 0.162c-0.086 0.032-0.347 0.141-0.11 0.92l0.097 0.239 1.264 1.337 0.324 0.745-0.137 1.005-0.303-0.183c-1.415-0.876-1.698-1.263-1.795-1.478l-0.203-0.498c-0.432-1.426-0.228-2.333 0.604-2.69l0.214-0.097c0.281-0.129 0.572-0.183 0.876-0.183 0.843 0 1.764 0.485 2.715 1.447l0.033 0.033 0.064 0.174c0.195 0.756 0.085 1.629-0.303 2.601l-0.012 0.025c-0.53 0.929-1.307 1.618-2.321 2.051-0.324 0.14-0.66 0.218-1.017 0.218-0.561 0-1.165-0.198-1.804-0.575l-0.506-0.345c-0.454-0.335-0.932-0.755-1.418-1.285l-0.851-0.706-0.012-0.085c-0.14-1.135-0.185-2.119-0.11-2.962l0.033-0.388c0.043-0.313 0.099-0.593 0.174-0.863 0.292-1.091 0.863-1.824 1.706-2.192l0.648-0.284c0.379-0.162 0.789-0.235 1.231-0.235 0.8 0 1.72 0.269 2.736 0.799 0.388-0.443 0.701-0.865 0.961-1.264-0.237-0.27-0.376-0.303-0.43-0.303-0.022 0-0.034 0.001-0.056 0.012-0.486 0.206-0.961 0.312-1.414 0.312-0.583 0-1.138-0.17-1.646-0.527l-0.052-0.033-0.183-0.421 0.129-0.421 0.247-0.122c0.054-0.022 0.107-0.033 0.15-0.033 0.184 0 0.325 0.13 0.434 0.369l0.012 0.033 0.085 0.369c0.594 0.151 1.157 0.117 1.698-0.122l1.729-0.787c0.097-0.519 0.041-0.986-0.141-1.418l-0.118-0.28c-0.011-0.032-0.034-0.077-0.056-0.11l-0.11 0.434-0.28 0.118-0.388-0.226-0.226-0.506 0.085-0.369-0.365-0.118 0.907-0.388zM18.583 7.217c-0.173 0-0.369 0.043-0.563 0.129l-0.486 0.207c-0.011 0.14 0.041 0.722 1.025 3.003l0.064-0.259 0.097-0.041c0.043-0.011 0.086-0.025 0.129-0.025 0.206 0 0.349 0.162 0.478 0.421l0.559-0.247c0.226-0.097 0.347-0.272 0.369-0.563 0.011-0.335-0.096-0.797-0.345-1.37-0.368-0.843-0.8-1.256-1.329-1.256zM20.862 10.958c-0.215 0-0.464 0.063-0.745 0.183-0.379 0.173-0.678 0.251-0.916 0.251-0.129 0-0.229-0.032-0.316-0.065l0.446 1.005c1.069 2.475 1.469 3.069 1.609 3.209l0.064-0.025c0.714-0.313 1.165-0.722 1.349-1.22 0.195-0.508 0.129-1.145-0.195-1.88l-0.268-0.648c-0.237-0.541-0.575-0.81-1.029-0.81z"></path>
</symbol>
<symbol id="pbicon-D" viewBox="0 0 32 32">
<path d="M27.618 0.002l-23.236 15.983 0.052 0.013-0.052 0.019 23.236 15.983v-7.625l-12.183-8.383 12.183-8.383v-7.608z"></path>
</symbol>
<symbol id="pbicon-DD" viewBox="0 0 46 32">
<path d="M23.177 0.002l-23.177 15.983 0.051 0.013-0.051 0.019 23.177 15.983v-7.625l-12.137-8.383 12.137-8.383v-7.608zM46 0.002l-23.16 15.983 0.052 0.013-0.052 0.019 23.16 15.983v-7.625l-12.137-8.383 12.137-8.383v-7.608z"></path>
</symbol>
<symbol id="pbicon-KD" viewBox="0 0 59 32">
<path d="M0.409 32l12.12-0.296 0.221-1.404-4.213-0.444c0 0 0.221-1.035 0.221-2.439v-10.865h0.887l8.351 10.125c2.957 3.546 3.326 5.025 3.326 5.025l0.221 0.148h7.835l0.221-1.627-0.516-0.073c-1.404-0.073-1.774-0.221-3.842-2.662l-11.085-13.524v-0.591l8.794-8.942c2.957-3.030 5.469-3.546 5.469-3.546l-0.221-0.739h-9.165v1.256c2.366 0.369 2.218 1.479 1.404 2.439l-8.87 8.942c-0.812 0.812-1.847 1.479-1.847 1.479h-0.962v-8.351c0-3.917 1.627-5.764 1.627-5.764l-0.296-0.148c0 0-1.183 0.148-6.281 0.148h-3.546v1.256c3.399 0.739 3.399 1.256 3.399 3.474v22.541c0 1.627-1.256 2.734-3.251 2.957z"></path>
<path d="M27.626 32c0 0 4.657-0.148 7.391-0.148h3.917c11.456 0 19.807-6.208 19.807-17.073 0-10.79-8.722-14.634-18.108-14.634h-13.524v1.256c3.546 0.739 3.769 1.256 3.769 3.474v22.541c0 1.699-1.256 2.734-3.251 2.957zM35.756 29.709c0 0 0.221-1.256 0.221-2.662v-24.241l0.519-0.516h3.99c8.203 0 12.564 5.544 12.564 13.747 0 8.13-4.213 13.672-14.115 13.672z"></path>
</symbol>
<symbol id="pbicon-P" viewBox="0 0 32 32">
<path d="M4.382 0v7.608l12.17 8.383-12.17 8.383v7.625l23.236-15.983-0.058-0.019 0.058-0.019-23.236-15.976z"></path>
</symbol>
<symbol id="pbicon-PD" viewBox="0 0 46 32">
<path d="M0 0v7.626l11.711 8.377-11.711 8.371v7.626l22.359-15.984-0.050-0.013 0.050-0.019zM46 0l-22.34 15.984 0.050 0.013-0.050 0.019 22.34 15.984v-7.626l-11.717-8.377 11.717-8.371z"></path>
</symbol>
<symbol id="pbicon-PP" viewBox="0 0 46 32">
<path d="M0 0v7.616l15.694 10.837 7.466-2.458z"></path>
<path d="M0 24.369v7.631l23.162-15.992-7.466-2.475z"></path>
<path d="M22.838 0v7.616l15.677 10.837 7.483-2.458z"></path>
<path d="M22.838 24.369v7.631l23.162-15.992-7.483-2.475z"></path>
</symbol>
<symbol id="pbicon-T" viewBox="0 0 32 32">
<path d="M9.893 32l12.726-0.294 0.147-1.397-4.708-0.442c0 0 0.222-1.103 0.222-2.575v-24.351l0.514-0.514h4.341c3.605 0 5.149 0.958 5.002 5.738h1.766l1.472-8.165c0 0-1.472 0.294-3.458 0.294h-22.657c-1.913 0-3.163-0.294-3.163-0.294l-1.472 8.165h1.691c1.913-4.782 3.31-5.738 6.474-5.738h4.413v24.865c0 1.691-1.25 2.869-3.311 3.091z"></path>
</symbol>
<symbol id="pbicon-CP-gbcp" viewBox="0 0 32 32">
<path d="M14.539 0.001c-0.022 0.001 0.019 0.003 0.193 0.004 0.001 0 0.001-0 0.002-0s0.002 0 0.002 0h-0c0.522-0.006-0.132-0.007-0.198-0.004zM16.262 0.194c-0.5-0.007-1.007 0.013-1.516 0.054-0.001 0-0.001 0-0.002 0s-0.002 0-0.002-0h0c-0.099 0.006-0.204 0.020-0.306 0.031 0.214 0.449 0.421 0.908 0.576 1.386 0.236 0.728 0.42 1.529 0.409 2.347 1.665-0.584 3.355-1.089 5.065-1.516 0.079-0.539 0.050-1.129-0.076-1.686-1.328-0.376-2.716-0.596-4.147-0.617zM13.253 0.448c-2.689 0.465-5.132 1.583-7.166 3.183 0.263 0.568 0.573 1.124 0.927 1.632 0.449 0.652 0.969 1.276 1.597 1.686 0.735-0.391 1.476-0.755 2.209-1.095l0.005 0.013c0.001-0.005 0.003-0.010 0.005-0.014l-0 0.001c1.123-0.517 2.261-0.983 3.419-1.422 0.138-0.86-0.094-1.819-0.414-2.687-0.164-0.443-0.365-0.871-0.58-1.297zM21.624 1.231c0.051 0.436 0.060 0.876 0.009 1.306 0.83 0.244 1.583 0.658 2.276 1.064 0.82 0.48 1.57 1.061 2.263 1.69 1.359 1.246 2.422 2.686 3.243 4.323 0.874 1.728 1.317 3.561 1.565 5.446 0.052 0.382 0.102 0.763 0.148 1.149l-0.036 0.004c0.014 0.009 0.026 0.021 0.036 0.035l0 0v0.004c0.164 1.439 0.261 2.922 0.171 4.386 0.555-1.83 0.814-3.776 0.652-5.794-0.502-6.353-4.706-11.51-10.328-13.614zM21.008 3.524c-3.313 0.812-6.571 1.908-9.662 3.344-2.628 1.226-5.354 2.692-7.229 4.855-0.241 2.215-0.205 4.526 0.121 6.765 0.445-0.354 0.902-0.686 1.394-0.97 6.153-3.552 12.78-6.22 19.379-8.79 0.692-0.269 1.396-0.479 2.096-0.689-0.509-0.692-1.071-1.346-1.723-1.931-0.645-0.573-1.316-1.099-2.051-1.529-0.001 0-0.002 0-0.002 0s-0.002 0-0.002-0h0c-0.764-0.45-1.52-0.882-2.321-1.055zM23.199 4.352c-0.022 0.001 0.019 0.003 0.193 0.004 0.001 0 0.002-0 0.002-0s0.002 0 0.002 0h-0c0.522-0.006-0.132-0.007-0.198-0.004zM5.201 4.387c-1.625 1.486-2.936 3.297-3.833 5.32 0.567 0.537 1.252 0.95 1.997 1.162 1.184-1.335 2.641-2.409 4.188-3.322-0.591-0.488-1.091-1.074-1.498-1.668-0-0.001-0-0.003-0-0.004s0-0.003 0-0.005v0l-0.005 0.009c-0.319-0.476-0.595-0.98-0.85-1.493zM5.961 5.688c-0.022 0.001 0.019 0.003 0.193 0.004 0.001 0 0.001-0 0.002-0s0.002 0 0.002 0h-0c0.522-0.006-0.132-0.007-0.198-0.004zM10.873 6.086c-0.696 0.007 0.7 0.007 0.005 0-0.001 0-0.001 0-0.002 0s-0.002 0-0.002-0h0zM27.76 9.024c-0.694 0.2-1.375 0.421-2.047 0.684-6.763 2.651-13.623 5.208-19.797 8.937-0.519 0.314-0.995 0.713-1.471 1.136 0.082 0.398 0.168 0.792 0.27 1.171 0.403 1.536 1.066 2.918 2.024 4.18 0.14 0.185 0.288 0.363 0.436 0.541 0.751-0.016 1.48-0.032 2.155-0.206 6.889-1.77 13.618-4.604 19.572-8.464 0.36-0.234 0.684-0.609 1.048-0.966-0.040-0.336-0.077-0.665-0.126-0.993 0-0.001-0-0.001-0-0.002s0-0.002 0-0.002v0c-0.24-1.71-0.632-3.378-1.412-4.891-0.198-0.386-0.422-0.757-0.652-1.127zM0.928 10.808c-0.726 2.034-1.063 4.243-0.877 6.537 0.475 5.979 4.232 10.898 9.365 13.212 0.004-0.362 0.025-0.724 0.094-1.095-2.688-2.131-5.023-4.79-5.897-8.218-0.766-2.995-0.945-6.232-0.643-9.313-0.752-0.223-1.442-0.623-2.042-1.122zM30.072 14.832c-0.001-0.022-0.003 0.019-0.005 0.192 0 0.001 0 0.001 0 0.002s0 0.002-0 0.002v-0c0.006 0.519 0.007-0.131 0.005-0.197zM30.886 16.226c-0.002 0.002-0.002 0.004 0 0.004 0 0.003-0.003 0.009-0.005 0.009 0 0 0.005 0.004 0.005 0.004 0.007-0.007 0.014-0.013 0.022-0.018l0-0zM30.085 17.447c-0.301 0.259-0.613 0.504-0.958 0.711-5.94 3.557-12.388 6.427-19.073 8.285-0.621 0.173-1.247 0.249-1.876 0.295 0.693 0.705 1.433 1.37 2.209 1.981 7.237 1.564 14.959-2.011 19.703-7.44v-0.005c0.003-0.003 0.013-0.013 0.014-0.014 0.143-1.236 0.097-2.526-0.018-3.814zM30.526 22.472c-1.375 1.504-2.958 2.857-4.701 3.997 0.398 0.41 0.672 0.897 0.882 1.408 1.647-1.48 2.981-3.281 3.896-5.303-0.021-0.037-0.051-0.070-0.076-0.103zM24.822 27.086c-2.012 1.186-4.2 2.072-6.464 2.598 0.068 0.761 0.18 1.421 0.589 2.021 2.563-0.475 4.888-1.544 6.846-3.058-0.194-0.611-0.497-1.16-0.972-1.56zM10.608 29.912c-0.054 0.366-0.069 0.736-0.054 1.118 2.085 0.755 4.35 1.108 6.702 0.921 0.168-0.014 0.331-0.035 0.495-0.054-0.323-0.637-0.439-1.311-0.504-1.985-2.187 0.381-4.428 0.412-6.639 0z"></path>
</symbol>
<symbol id="pbicon-CP2-gbcp" viewBox="0 0 32 32">
<path d="M22.981 17.454c-0.077-0.006-0.158-0.008-0.238-0.008-0.871 0-1.585 0.318-2.144 0.808-0.064-0.003-0.127-0.006-0.191-0.006 0 0 0 0-0.003 0v0c1.004-1.311 1.45-6.446 1.629-9.506 0.039 0.003 0.069 0.019 0.108 0.019 0.678 0 1.27-0.105 1.784-0.285 0.642 0.6 1.505 1.109 2.631 1.452-2.249 2.263-3.234 5.384-3.577 7.525zM16.001 20.981v0c0 0 0 0 0 0zM11.398 18.253c-0.562-0.49-1.27-0.808-2.144-0.808-0.083 0-0.163 0.006-0.243 0.008-0.362-2.205-1.356-5.29-3.572-7.525 1.129-0.343 1.992-0.852 2.634-1.455 0.515 0.183 1.107 0.288 1.784 0.288 0.039 0 0.069-0.019 0.108-0.019 0.18 3.057 0.625 8.194 1.627 9.506-0.064 0-0.13 0.003-0.194 0.006zM28.954 2.169c-1.569 0-2.872 0.769-2.872 2.172s3.442 1.167 2.838-0.667c1.001 0.199 1.403 1.035 1.403 2.338 0 1.3-0.799 2.269-2.838 1.735-2.036-0.534-2.805-1.735-2.772-2.872l-0.332-0.166c0 0-0.1 1.701-2.238 1.701 0-1.436-1.602-2.905-4.642-2.905 0-2.938-1.502-2.603-1.502-3.505 0 0.902-1.502 0.567-1.502 3.505-3.038 0-4.639 1.469-4.639 2.905-2.139 0-2.238-1.701-2.238-1.701l-0.335 0.166c0.033 1.137-0.733 2.338-2.772 2.872-2.036 0.534-2.838-0.434-2.838-1.735 0-1.303 0.401-2.139 1.403-2.338-0.6 1.834 2.838 2.069 2.838 0.667s-1.3-2.172-2.872-2.172c-1.569 0-2.905 1.237-2.905 3.074s0.769 3.004 0.769 4.573c4.941 1.605 5.909 7.716 5.909 9.318s1.001 1.937 1.001 1.937c0 0 0.434-1.27 1.436-1.27s1.369 1.704 1.369 1.704c0 0-0.066-0.902 0.968-0.902s1.436 0.968 1.436 1.303c0.7 0 0.902 0.299 0.902 0.299v0.434c0.769 0 0.835 0.603 0.835 0.603s-0.102 0.479-0.102 2.816c0 2.338-3.939 2.205-3.939 2.205v1.668c0 0-1.201 0-1.201 0.935s6.476 1.134 6.476 1.134c0 0 6.479-0.199 6.479-1.134s-1.203-0.935-1.203-0.935v-1.668c0 0-3.939 0.133-3.939-2.205s-0.1-2.816-0.1-2.816c0 0 0.066-0.603 0.833-0.603v-0.434c0 0 0.202-0.299 0.905-0.299 0-0.335 0.398-1.303 1.436-1.303 1.032 0 0.968 0.902 0.968 0.902s0.365-1.704 1.367-1.704c1.001 0 1.436 1.27 1.436 1.27s1.001-0.335 1.001-1.937c0-1.602 0.971-7.713 5.912-9.318 0-1.569 0.769-2.736 0.769-4.573s-1.336-3.074-2.908-3.074z"></path>
</symbol>
</defs>
</svg>
