<?xml version="1.0" encoding="UTF-8" standalone="no"?>
<!-- Created with Inkscape (http://www.inkscape.org/) -->

<svg
   width="16"
   height="16"
   viewBox="0 0 4.2333333 4.2333332"
   version="1.1"
   id="svg12285"
   xmlns:xlink="http://www.w3.org/1999/xlink"
   xmlns="http://www.w3.org/2000/svg"
   xmlns:svg="http://www.w3.org/2000/svg">
  <defs
     id="defs12282">
    <linearGradient
       xlink:href="#linearGradient24977"
       id="linearGradient10058"
       gradientUnits="userSpaceOnUse"
       x1="2.6503906"
       y1="1.5488281"
       x2="4.9584126"
       y2="6.4968653" />
    <linearGradient
       id="linearGradient24977">
      <stop
         style="stop-color:#50b8c8;stop-opacity:1"
         offset="0"
         id="stop24973" />
      <stop
         style="stop-color:#ce1f27;stop-opacity:1"
         offset="1"
         id="stop24975" />
    </linearGradient>
  </defs>
  <g
     id="layer1">
    <g
       id="g12236"
       transform="matrix(0.08517911,0,0,0.08517911,-2.4829785,-2.482991)">
      <g
         aria-label="pb "
         transform="scale(1.0100219,0.99007755)"
         id="text6192"
         style="font-size:34.0337px;font-family:Calluna;-inkscape-font-specification:Calluna;letter-spacing:-4.14788px;word-spacing:0px;fill:none;stroke:none;stroke-width:4.5703">
        <path
           style="color:#000000;-inkscape-font-specification:Comfortaa;fill:#ffffff;stroke:none;-inkscape-stroke:none"
           d="m 43.558594,42.8125 c -2.109463,0 -4.134337,0.526537 -5.91211,1.568359 -1.744544,1.012962 -3.177786,2.464195 -4.201172,4.234375 l -0.002,0.0059 -0.0039,0.0039 c -1.018363,1.782136 -1.525391,3.812282 -1.525391,5.933594 v 15.519531 c 10e-7,0.985502 0.386403,2.114918 1.146485,2.875 l 0.02734,0.02734 0.0293,0.02734 c 0.747728,0.697879 1.834471,1.089844 2.81836,1.089844 0.985503,0 2.114919,-0.38445 2.875,-1.144531 0.760083,-0.760081 1.144531,-1.889497 1.144531,-2.875 v -4.71875 c 1.345058,0.582129 2.789197,0.912109 4.283203,0.912109 2.011481,0 3.94881,-0.529227 5.623047,-1.566406 1.677454,-1.025652 3.029266,-2.488341 3.953125,-4.25 0.94936,-1.789988 1.421875,-3.797478 1.421875,-5.896484 0,-2.118549 -0.507728,-4.145324 -1.523437,-5.925782 -1.00807,-1.789065 -2.469505,-3.248695 -4.257813,-4.257812 -1.77428,-1.036194 -3.79276,-1.5625 -5.896484,-1.5625 z m 4.216797,4.226562 0.05664,0.0332 c -0.01021,-0.0064 -0.02296,-0.0073 -0.0332,-0.01367 -0.0088,-0.0052 -0.0146,-0.01436 -0.02344,-0.01953 z m 3.019531,3.138672 0.01953,0.03516 c -0.0033,-0.0063 -0.0084,-0.01133 -0.01172,-0.01758 -0.0031,-0.0056 -0.0047,-0.01195 -0.0078,-0.01758 z m -7.236328,0.267578 c 0.753597,0 1.306882,0.163481 1.851562,0.503907 l 0.02734,0.01758 0.0293,0.01563 c 0.577538,0.338071 0.979466,0.753135 1.318359,1.386719 l 0.0098,0.01758 0.0098,0.01758 c 0.349813,0.626748 0.527344,1.296702 0.527344,2.154297 0,0.857594 -0.177531,1.525596 -0.527344,2.152343 l -0.0059,0.0098 -0.0039,0.0078 c -0.337415,0.616149 -0.754777,1.050921 -1.357422,1.419921 -0.5453,0.325698 -1.11325,0.488282 -1.878906,0.488282 -0.756497,0 -1.340253,-0.167159 -1.91211,-0.496094 -0.566225,-0.360575 -0.978534,-0.790832 -1.316406,-1.404297 -0.334197,-0.628573 -0.509766,-1.310365 -0.509766,-2.177734 0,-0.871967 0.174035,-1.55813 0.511719,-2.189453 0.34539,-0.645729 0.74772,-1.064257 1.304688,-1.398438 l 0.0078,-0.0039 0.0059,-0.0059 c 0.577722,-0.352269 1.154605,-0.515625 1.908203,-0.515625 z m 7.246093,8.478516 -0.0098,0.01563 c 10e-4,-0.0018 9.48e-4,-0.0041 0.002,-0.0059 0.002,-0.0037 0.0058,-0.0061 0.0078,-0.0098 z"
           id="path317" />
        <path
           style="color:#000000;-inkscape-font-specification:Comfortaa;fill:#ffffff;stroke:none;-inkscape-stroke:none"
           d="m 55.712891,34.984375 c -0.985502,0 -2.114919,0.384452 -2.875,1.144531 -0.760081,0.760081 -1.146485,1.889497 -1.146485,2.875 v 15.519531 c 0,2.121312 0.508247,4.155286 1.519531,5.953125 l 0.0098,0.01953 0.01172,0.01758 c 1.022833,1.74158 2.442917,3.179518 4.167969,4.208984 l 0.01758,0.01172 0.01953,0.0098 c 1.777614,1.015779 3.795249,1.527343 5.898437,1.527343 2.103189,0 4.120824,-0.511564 5.898438,-1.527343 l 0.0059,-0.002 0.0039,-0.0039 c 1.777903,-1.02785 3.233529,-2.479476 4.24414,-4.248047 l 0.0039,-0.0059 0.0039,-0.0078 c 1.011285,-1.797839 1.517578,-3.831813 1.517578,-5.953125 0,-2.094456 -0.469961,-4.091593 -1.421875,-5.863281 -0.921246,-1.778533 -2.272108,-3.255334 -3.953125,-4.283203 -1.674236,-1.037178 -3.609615,-1.564453 -5.621094,-1.564453 -1.494006,0 -2.940098,0.328026 -4.285156,0.910156 v -4.71875 c 0,-1.006367 -0.436255,-2.151873 -1.214844,-2.896484 -0.740763,-0.722492 -1.833652,-1.123047 -2.804687,-1.123047 z m 11.839843,12.054687 0.05664,0.0332 c -0.01021,-0.0064 -0.02296,-0.0073 -0.0332,-0.01367 -0.0088,-0.0052 -0.0146,-0.01436 -0.02344,-0.01953 z m 3.007813,3.117188 0.03125,0.05664 c -0.0051,-0.0095 -0.01441,-0.01591 -0.01953,-0.02539 -0.0055,-0.0097 -0.0062,-0.02155 -0.01172,-0.03125 z m -7.22461,0.289062 c 0.753598,0 1.306883,0.163481 1.851563,0.503907 l 0.0293,0.01758 0.02734,0.01563 c 0.577539,0.338072 0.979466,0.753136 1.318359,1.386719 l 0.01563,0.02734 0.01563,0.02734 c 0.339107,0.593437 0.515625,1.242015 0.515625,2.099609 0,0.857595 -0.177531,1.52755 -0.527344,2.154297 l -0.0098,0.01758 -0.0098,0.01758 c -0.340934,0.637398 -0.756441,1.073506 -1.347656,1.435546 -0.5453,0.325698 -1.11325,0.488282 -1.878907,0.488282 -0.756497,0 -1.340253,-0.167159 -1.912109,-0.496094 -0.55846,-0.355816 -0.97217,-0.787813 -1.314453,-1.427734 -0.337685,-0.631324 -0.511719,-1.317487 -0.511719,-2.189454 0,-0.871966 0.174603,-1.536996 0.501953,-2.134765 l 0.0059,-0.0098 0.0039,-0.0098 c 0.34539,-0.645729 0.747719,-1.064257 1.304687,-1.398438 l 0.0078,-0.0039 0.0059,-0.0059 c 0.577722,-0.352269 1.154606,-0.515625 1.908203,-0.515625 z m 7.25586,8.423829 -0.01953,0.03516 c 0.0031,-0.0056 0.0047,-0.01195 0.0078,-0.01758 0.0034,-0.0063 0.0084,-0.01132 0.01172,-0.01758 z"
           id="path319" />
      </g>
      <path
         style="fill:#ffffff;stroke-width:0.0334526;stroke:none"
         d="m 42.794543,59.622607 c -1.959151,-0.336606 -3.77855,-1.814613 -4.453107,-3.617525 -1.230439,-3.288646 0.06711,-6.868391 2.981457,-8.225417 0.80915,-0.37677 1.172675,-0.440316 2.533686,-0.442905 1.371137,-0.0025 1.717875,0.05741 2.529012,0.437744 2.126802,0.997235 3.295858,2.761119 3.448181,5.202648 0.102515,1.643167 -0.205068,2.949269 -0.982116,4.170426 -1.176183,1.848413 -3.700564,2.879913 -6.057113,2.475029 z"
         id="path6206" />
      <path
         style="fill:#ffffff;stroke-width:0.0334526;stroke:none"
         d="m 63.163418,59.876547 c -1.790181,-0.308451 -3.392747,-1.553601 -4.250412,-3.302453 -0.429355,-0.875493 -0.47072,-1.121512 -0.471168,-2.802282 -4.66e-4,-1.74217 0.0292,-1.902902 0.54473,-2.950911 0.634507,-1.289884 1.540555,-2.174042 2.863587,-2.794398 1.358916,-0.637182 3.531844,-0.637182 4.89076,0 1.254993,0.588453 2.162738,1.438859 2.784607,2.608709 2.492738,4.689307 -1.247722,10.122548 -6.362104,9.241335 z"
         id="path6194" />
      <g
         aria-label="pb "
         transform="scale(1.0100219,0.99007755)"
         id="text6200"
         style="font-size:34.0337px;font-family:Calluna;-inkscape-font-specification:Calluna;letter-spacing:-4.14788px;word-spacing:0px;stroke:none;stroke-width:0;fill:#000000">
        <g
           id="path334"
           style="fill:#000000;stroke:none">
          <path
             style="color:#000000;-inkscape-font-specification:Comfortaa;fill:#000000;stroke:none;-inkscape-stroke:none"
             d="m 43.558281,45.096831 q 2.620595,0 4.764718,1.259247 2.178156,1.225213 3.40337,3.40337 1.225213,2.144123 1.225213,4.798752 0,2.654628 -1.157146,4.832785 -1.123112,2.144123 -3.1311,3.369336 -1.973955,1.225213 -4.424381,1.225213 -1.973955,0 -3.67564,-0.816808 -1.701685,-0.816809 -2.892864,-2.280258 v 9.189098 q 0,0.782776 -0.476472,1.259247 -0.476472,0.476472 -1.259247,0.476472 -0.748741,0 -1.259247,-0.476472 -0.476471,-0.476471 -0.476471,-1.259247 V 54.5582 q 0,-2.654629 1.225213,-4.798752 1.259247,-2.178157 3.369336,-3.40337 2.144123,-1.259247 4.764718,-1.259247 z m 0,15.82567 q 1.701685,0 3.063033,-0.816808 1.395381,-0.850843 2.178156,-2.280258 0.816809,-1.463449 0.816809,-3.267235 0,-1.803786 -0.816809,-3.267235 -0.782775,-1.463449 -2.178156,-2.280258 -1.361348,-0.850843 -3.063033,-0.850843 -1.701685,0 -3.097067,0.850843 -1.361348,0.816809 -2.144123,2.280258 -0.782775,1.463449 -0.782775,3.267235 0,1.803786 0.782775,3.267235 0.782775,1.429415 2.144123,2.280258 1.395382,0.816808 3.097067,0.816808 z"
             id="path341" />
          <path
             style="color:#000000;-inkscape-font-specification:Comfortaa;fill:#000000;stroke:none;-inkscape-stroke:none"
             d="m 43.558281,45.096831 c 1.747062,0 3.335304,0.41975 4.764718,1.259247 1.452103,0.816808 2.586561,1.951267 3.40337,3.40337 0.816808,1.429414 1.225213,3.029001 1.225213,4.798752 0,1.76975 -0.385716,3.380682 -1.157146,4.832785 -0.748741,1.429414 -1.792443,2.552528 -3.1311,3.369336 -1.315969,0.816808 -2.790765,1.225213 -4.424381,1.225213 -1.315969,0 -2.541184,-0.27227 -3.67564,-0.816808 C 39.428859,62.624187 38.46457,61.8641 37.670451,60.888468 v 9.189098 c 0,0.52185 -0.158824,0.9416 -0.476472,1.259247 -0.317648,0.317648 -0.737398,0.476472 -1.259247,0.476472 -0.49916,0 -0.91891,-0.158824 -1.259247,-0.476472 -0.317647,-0.317647 -0.476471,-0.737397 -0.476471,-1.259247 V 54.5582 c 0,-1.769751 0.408405,-3.369338 1.225213,-4.798752 0.839497,-1.452103 1.962611,-2.586562 3.369336,-3.40337 1.429414,-0.839497 3.017656,-1.259247 4.764718,-1.259247 z m 0,15.82567 c 1.134456,0 2.155469,-0.27227 3.063033,-0.816808 0.930253,-0.567228 1.656307,-1.327316 2.178156,-2.280258 0.544539,-0.975632 0.816809,-2.064712 0.816809,-3.267235 0,-1.202523 -0.27227,-2.291603 -0.816809,-3.267235 -0.521849,-0.975632 -1.247903,-1.735719 -2.178156,-2.280258 -0.907564,-0.567228 -1.928577,-0.850843 -3.063033,-0.850843 -1.134456,0 -2.166813,0.283615 -3.097067,0.850843 -0.907564,0.544539 -1.622274,1.304626 -2.144123,2.280258 -0.521849,0.975632 -0.782775,2.064712 -0.782775,3.267235 0,1.202523 0.260926,2.291603 0.782775,3.267235 0.521849,0.952942 1.236559,1.71303 2.144123,2.280258 0.930254,0.544538 1.962611,0.816808 3.097067,0.816808 z"
             id="path343" />
        </g>
        <g
           id="path336"
           style="fill:#000000;stroke:none">
          <path
             style="color:#000000;-inkscape-font-specification:Comfortaa;fill:#000000;stroke:none;-inkscape-stroke:none"
             d="m 55.712513,37.269081 q -0.782775,0 -1.259247,0.476471 -0.476472,0.476472 -0.476472,1.259247 v 15.519367 q 0,2.654629 1.225213,4.832785 1.259247,2.144123 3.369336,3.40337 2.144123,1.225213 4.764718,1.225213 2.620595,0 4.764718,-1.225213 2.178157,-1.259247 3.40337,-3.40337 1.225213,-2.178156 1.225213,-4.832785 0,-2.654628 -1.157146,-4.798752 -1.123112,-2.178156 -3.1311,-3.403369 -1.973954,-1.225214 -4.424381,-1.225214 -1.973954,0 -3.675639,0.816809 -1.701685,0.816809 -2.892865,2.280258 v -9.189099 q 0,-0.782775 -0.510505,-1.259247 -0.476472,-0.476471 -1.225213,-0.476471 z m 7.623548,23.65342 q -1.701685,0 -3.097066,-0.816808 -1.361348,-0.850843 -2.144123,-2.314292 -0.782775,-1.463449 -0.782775,-3.267235 0,-1.803786 0.782775,-3.233201 0.782775,-1.463449 2.144123,-2.280258 1.395381,-0.850843 3.097066,-0.850843 1.701685,0 3.063033,0.850843 1.395382,0.816809 2.178157,2.280258 0.816809,1.429415 0.816809,3.233201 0,1.803786 -0.816809,3.267235 -0.782775,1.463449 -2.178157,2.314292 -1.361348,0.816808 -3.063033,0.816808 z"
             id="path347" />
          <path
             style="color:#000000;-inkscape-font-specification:Comfortaa;fill:#000000;stroke:none;-inkscape-stroke:none"
             d="m 55.712513,37.269081 c -0.521849,0 -0.941599,0.158824 -1.259247,0.476471 -0.317648,0.317648 -0.476472,0.737398 -0.476472,1.259247 v 15.519367 c 0,1.769751 0.408405,3.380682 1.225213,4.832785 0.839497,1.429414 1.962611,2.563873 3.369336,3.40337 1.429414,0.816808 3.017656,1.225213 4.764718,1.225213 1.747062,0 3.335304,-0.408405 4.764718,-1.225213 1.452103,-0.839497 2.586562,-1.973956 3.40337,-3.40337 0.816808,-1.452103 1.225213,-3.063034 1.225213,-4.832785 0,-1.76975 -0.385716,-3.369337 -1.157146,-4.798752 -0.748741,-1.452103 -1.792443,-2.586561 -3.1311,-3.403369 -1.315968,-0.816809 -2.790765,-1.225214 -4.424381,-1.225214 -1.315968,0 -2.541183,0.27227 -3.675639,0.816809 -1.134456,0.544539 -2.098746,1.304626 -2.892865,2.280258 v -9.189099 c 0,-0.521849 -0.170169,-0.941599 -0.510505,-1.259247 -0.317648,-0.317647 -0.726053,-0.476471 -1.225213,-0.476471 z m 7.623548,23.65342 c -1.134456,0 -2.166813,-0.27227 -3.097066,-0.816808 -0.907564,-0.567228 -1.622274,-1.33866 -2.144123,-2.314292 -0.521849,-0.975632 -0.782775,-2.064712 -0.782775,-3.267235 0,-1.202523 0.260926,-2.280259 0.782775,-3.233201 0.521849,-0.975632 1.236559,-1.735719 2.144123,-2.280258 0.930253,-0.567228 1.96261,-0.850843 3.097066,-0.850843 1.134456,0 2.155469,0.283615 3.063033,0.850843 0.930254,0.544539 1.656308,1.304626 2.178157,2.280258 0.544539,0.952942 0.816809,2.030678 0.816809,3.233201 0,1.202523 -0.27227,2.291603 -0.816809,3.267235 -0.521849,0.975632 -1.247903,1.747064 -2.178157,2.314292 -0.907564,0.544538 -1.928577,0.816808 -3.063033,0.816808 z"
             id="path349" />
        </g>
      </g>
      <g
         id="g6204"
         transform="matrix(2.0397484,0,0,-2.1047059,-64.741458,371.69251)"
         style="fill:#333333;stroke:none;stroke-width:0.14479">
        <g
           id="path6202"
           transform="matrix(0.75000002,0,0,-0.75000002,50.500057,153.76579)"
           style="stroke:none">
          <path
             style="color:#000000;fill:url(#linearGradient10058);stroke:none;stroke-width:0.193053"
             d="m 3.4589844,0.01171875 c -0.06,0.004 -0.1203997,0.01064479 -0.1777344,0.01757813 0.066667,0.13334666 0.126547,0.27015625 0.171875,0.41015624 0.064,0.19866667 0.1145573,0.4162998 0.087891,0.62695308 C 3.9716809,0.91040625 4.4114688,0.77730208 4.8554688,0.66796875 4.8874687,0.50530209 4.8779844,0.32353645 4.8339844,0.15820312 4.4006511,0.0288698 3.936319,-0.02694792 3.4589844,0.01171875 Z M 3.1660156,0.046875 C 2.4900156,0.15354166 1.8782878,0.43700293 1.3769531,0.84765625 1.4436198,1.0036562 1.530332,1.1536823 1.625,1.2910156 1.7383333,1.4563623 1.870875,1.625849 2.046875,1.7285156 2.2282083,1.629849 2.4130365,1.5404248 2.5957031,1.4550781 2.8663698,1.3297448 3.141875,1.2147217 3.421875,1.109375 3.4725417,0.87737501 3.4061719,0.62688312 3.3261719,0.40820312 3.2808385,0.28420313 3.227345,0.16420833 3.1660156,0.046875 Z m 1.7890625,0.15039062 c 0.033333,0.156 0.038372,0.32065626 0.011719,0.47265626 0.202668,0.048 0.3884531,0.15576562 0.5644531,0.25976562 0.1826667,0.108 0.3518125,0.2381927 0.5078125,0.3808594 0.3053333,0.2813333 0.5431823,0.6078489 0.7285156,0.9785156 0.196,0.3893333 0.2955625,0.8037083 0.3515625,1.234375 0.012,0.088 0.022537,0.1762917 0.033203,0.265625 v 0.00195 c 0.046667,0.4093467 0.073484,0.832948 0.021484,1.2382813 0.029333,0.026667 0.054839,0.05651 0.076172,0.089844 0.2,-0.512 0.2908073,-1.0761562 0.2441406,-1.6601562 C 7.3728071,1.9149816 6.3337446,0.66392948 4.9550779,0.19726282 Z M 1.2910156,0.91992188 C 0.86168097,1.2946019 0.51892187,1.7656019 0.29492188,2.2949219 0.45092187,2.4576019 0.65109376,2.5794792 0.87109375,2.6328125 1.1630937,2.2888125 1.538832,2.0170625 1.9375,1.7890625 1.7721667,1.6770625 1.6419167,1.5103229 1.53125,1.3476562 1.4405833,1.2116563 1.3590156,1.0692552 1.2910156,0.91992188 Z M 2.3671875,6.0742151 c -0.189142,0.052882 -0.386651,0.071458 -0.5839844,0.078125 0.1973334,0.2173333 0.4171497,0.41375 0.6464844,0.59375 1.7026653,0.3786666 3.5098073,-0.465474 4.6191406,-1.7441407 0.00667,-0.008 0.011465,-0.013358 0.019531,-0.015625 0.044,-0.3520133 0.026961,-0.7200781 -0.011719,-1.0800781 -0.1,0.1 -0.2071305,0.1880185 -0.3261718,0.2597656 C 5.3708835,4.985444 3.8959894,5.6467755 2.3671875,6.0742151 Z M 6.7597656,4.0273438 C 6.8666481,3.9576102 6.9503476,3.8529248 7.0410156,3.7675781 7.030349,3.6769115 7.0191927,3.5873935 7.0058594,3.4980469 6.9498594,3.0980469 6.8591615,2.70507 6.6738281,2.34375 6.6178281,2.2344167 6.5575208,2.128044 6.4921875,2.0253906 h -0.00195 C 6.308901,2.0760573 6.1315009,2.136247 5.9570312,2.2050781 4.4037786,2.8178615 2.8232721,3.4099492 1.3964842,4.2773438 1.2578176,4.3616441 1.1350037,4.468805 1.0136717,4.578125 c 0.021333,0.108 0.044266,0.2143594 0.072266,0.3183594 0.094667,0.364 0.2518503,0.6921875 0.4785156,0.9921875 0.041333,0.054667 0.082967,0.1081296 0.1269531,0.1601562 0.00533,-0.00133 0.010938,-0.00391 0.017578,-0.00391 0.178668,-0.004 0.3590171,-0.00627 0.53125,-0.050781 1.5907268,-0.41106 3.1435168,-1.069037 4.5195312,-1.9667933 z M 5.8515621,2.1210932 C 6.0411404,2.0468057 6.2356406,1.9884342 6.4316406,1.9296875 6.296974,1.7323675 6.1422708,1.5507187 5.9609375,1.3867188 5.8102708,1.2520521 5.6512278,1.128044 5.4765625,1.0253906 5.2965625,0.91872396 5.1109649,0.80892479 4.9042969,0.76757812 4.1322969,0.95692479 3.3717239,1.2114681 2.6503906,1.5488281 2.037056,1.8368148 1.3932187,2.1836511 0.94921875,2.7089844 c -0.064,0.5693333 -0.0563177,1.1688542 0.0410156,1.7421875 C 1.1222344,4.3351719 1.2609622,4.235138 1.4101562,4.1484375 2.8172295,3.3307502 4.3363311,2.7148464 5.8515621,2.1210932 Z M 0.25,2.4042969 c -0.196,0.5066666 -0.28494792,1.0658512 -0.23828125,1.6445312 0.11466666,1.45332 1.04273445,2.647875 2.30273435,3.171875 -0.00533,-0.1293333 -0.00127,-0.2548125 0.025391,-0.3828125 -0.00267,-0.008 -0.00329,-0.01801 -0.00195,-0.027344 C 1.715224,6.3198802 1.1791367,5.7084346 0.98046875,4.9257812 0.80180209,4.2231146 0.76055596,3.4589948 0.83789062,2.7363281 0.61922396,2.6843281 0.411332,2.5629635 0.25,2.4042969 Z M 7.0976562,5.109375 C 6.7523229,5.5027217 6.342625,5.8539583 5.890625,6.140625 6.038625,6.2619583 6.1334531,6.4274219 6.1894531,6.6074219 6.6227878,6.2367552 6.9679323,5.7714271 7.1972656,5.2460938 7.174599,5.1914271 7.144849,5.1446215 7.1035156,5.1113281 Z M 5.7910156,6.2011719 C 5.301681,6.4985052 4.7656042,6.7185238 4.2109375,6.8398438 c 0.017333,0.2199999 0.037733,0.4189091 0.1777344,0.6015624 0.00267,0.004 0.00453,0.00577 0.00586,0.00977 C 5.0358646,7.3405052 5.6163229,7.0702604 6.0976562,6.6835938 6.0469896,6.4955938 5.953681,6.3185052 5.7910156,6.2011719 Z m -3.34375,0.6621093 c -0.028911,0.1339862 -0.029446,0.265049 -0.021484,0.4003907 0.502668,0.1906666 1.0523803,0.2777552 1.6230469,0.2324219 0.077333,-0.00667 0.1518959,-0.014724 0.2265625,-0.025391 -0.1293333,-0.184 -0.154543,-0.3887552 -0.171875,-0.6074219 -0.5453346,0.1053334 -1.1055833,0.1153334 -1.6562504,3e-7 z"
             id="path353" />
          <path
             style="color:#000000;fill:#ffffff;stroke:none"
             d="m 3.4511719,-0.08398437 c -0.062112,0.0041972 -0.1241941,0.01063126 -0.1816406,0.01757812 l -0.1367188,0.015625 0.00391,0.0078125 C 2.4541691,0.06752777 1.8366924,0.35387008 1.328125,0.76757812 l -0.00391,-0.005859 -0.052734,0.046875 -0.011719,0.009766 -0.03125,0.0292969 C 0.79418767,1.2266939 0.44864699,1.7043975 0.21875,2.2382813 l -0.005859,-0.00586 -0.03125,0.083984 -0.0214844,0.052734 c -0.2010765,0.5197895 -0.29199768,1.0940589 -0.24414062,1.6875 0.11755255,1.4898967 1.06882099,2.7163874 2.36132822,3.2539063 l 0.056641,0.021484 0.083984,0.035156 v -0.00977 c 0.5084864,0.1888445 1.0630051,0.2801055 1.6386717,0.234375 0.078669,-0.00679 0.155583,-0.014413 0.232422,-0.025391 l 0.041016,-0.00586 0.1152344,-0.015625 -0.00781,-0.00977 C 5.0755949,7.4197832 5.6559458,7.1528573 6.1386719,6.7695312 l 0.00195,0.00586 0.017578,-0.015625 0.048828,-0.041016 0.044922,-0.037109 C 6.686379,6.3100406 7.0266218,5.840293 7.2617187,5.3164062 l 0.00977,0.013672 0.068359,-0.1757812 C 7.5449883,4.6291372 7.6376995,4.0500026 7.5898477,3.451172 7.4654577,1.8683252 6.4006676,0.58421034 4.9863281,0.10546875 L 4.9140625,0.08203125 4.8261719,0.05078125 4.828125,0.0625 c -0.4345436,-0.12578373 -0.8974458,-0.18491273 -1.375,-0.14648437 z m 0.013672,0.19140624 h 0.00195 C 3.9093326,0.0715741 4.3372828,0.13070006 4.7421875,0.24414063 4.7663541,0.3617425 4.7751508,0.48187188 4.7597656,0.59570312 4.3741939,0.69299896 3.9929029,0.81102089 3.6171875,0.94335938 3.615788,0.75849109 3.5974006,0.57305886 3.5449219,0.41015625 c -0.033355,-0.10302015 -0.080082,-0.2007446 -0.125,-0.29882813 0.015073,-0.001313 0.029992,-0.002911 0.044922,-0.003906 z M 3.1152344,0.171875 c 0.043163,0.0886811 0.087281,0.17704289 0.1210937,0.26953125 0.072814,0.1990362 0.1151767,0.41374261 0.085937,0.60546875 C 3.0632006,1.1460258 2.8058935,1.2508656 2.5546875,1.3671875 2.3926654,1.4428886 2.2274236,1.5248815 2.0644531,1.6113281 1.926777,1.5190349 1.8070124,1.3850444 1.7050781,1.2363281 1.630636,1.1283361 1.5671473,1.0100056 1.5097656,0.890625 1.967557,0.53173631 2.5130481,0.27958066 3.1152344,0.171875 Z m 1.9394531,0.20898438 c 1.2660153,0.49293693 2.2300234,1.63873542 2.34375,3.08593752 0.026637,0.3333438 -0.078958,0.6336868 -0.1386719,0.9472656 -0.00592,-0.208948 0.011335,-0.4191008 -0.011719,-0.6230469 v -0.00781 -0.00586 C 7.2374579,3.688656 7.2268802,3.6001439 7.2148437,3.5117188 v -0.00195 C 7.1579315,3.0730999 7.0556922,2.6476963 6.8535156,2.2460938 6.6635495,1.8661614 6.4178485,1.5298598 6.1035156,1.2402344 5.9434552,1.0938543 5.7695276,0.9577134 5.5800781,0.84570313 5.4251896,0.75417811 5.2489748,0.66764724 5.0605469,0.609375 5.068853,0.53385601 5.0596403,0.45769598 5.0546875,0.38085938 Z M 4.9023437,0.86914063 C 5.0811797,0.90904204 5.2535753,1.0061696 5.4277344,1.109375 5.5951904,1.2077914 5.74903,1.3271889 5.8964844,1.4589844 6.0382757,1.587222 6.151842,1.7347264 6.2636719,1.8847656 6.1143719,1.9302869 5.9642951,1.9732988 5.8164062,2.03125 4.3004695,2.6252798 2.776289,3.2421821 1.3613281,4.0644531 1.2622655,4.122021 1.1732115,4.1959964 1.0820312,4.265625 1.0130393,3.7654061 0.99195862,3.2508438 1.0449219,2.7558594 1.4723487,2.2605608 2.0895641,1.9193092 2.6914063,1.6367187 3.3980151,1.3062452 4.1444129,1.0565384 4.9023437,0.86914063 Z M 1.2792969,1.09375 c 0.05444,0.1041387 0.1072422,0.2096916 0.171875,0.3066406 v 0.00195 C 1.5420029,1.5358509 1.6643851,1.66321 1.796875,1.7773406 1.4531597,1.9825712 1.1285819,2.222157 0.86132813,2.5195313 0.70040215,2.4737285 0.55659176,2.381448 0.43164063,2.2675781 0.63247202,1.8208233 0.92435033,1.4257871 1.2792969,1.09375 Z M 2.09375,1.8125 C 2.009212,1.85858 1.9402331,1.924448 1.8574219,1.9746094 1.9050799,1.9455174 1.9377529,1.9008274 1.9863281,1.8730469 l 0.058594,-0.033203 z m 4.3535156,0.3300781 c 0.048817,0.080365 0.097246,0.1614004 0.140625,0.2460938 0.1781982,0.3474094 0.2670463,0.7286228 0.3222656,1.1230469 0.010717,0.071811 0.020445,0.1454427 0.029297,0.21875 -0.081369,0.08075 -0.1550264,0.1663014 -0.232422,0.2167968 C 5.3407742,4.8386559 3.7980965,5.4917667 2.2167969,5.9003906 2.0951542,5.9318274 1.9583658,5.9331934 1.8222656,5.9375 1.6788247,5.7638633 1.5351722,5.5962371 1.4316406,5.3984375 1.3441231,5.2253773 1.2299733,5.0663985 1.1796875,4.8730469 v -0.00195 C 1.1576348,4.7891836 1.1387686,4.7032089 1.1210937,4.6171875 1.227468,4.5225115 1.3329399,4.4288776 1.4472656,4.359375 2.8636755,3.4982895 4.4378877,2.9081184 5.9921875,2.2949219 6.1412953,2.2360964 6.2934236,2.1879175 6.4472656,2.1425781 Z M 0.32421875,2.5527344 c 0.12867233,0.1001988 0.2661449,0.1901037 0.421875,0.2382812 -0.0694353,0.7144108 -0.0360121,1.4635184 0.140625,2.1582031 0.0541424,0.2132944 0.26794635,0.3208785 0.36523435,0.5097657 0.079815,0.161707 0.1249976,0.340931 0.2363281,0.4882812 0.029329,0.038791 0.058977,0.077075 0.089844,0.1152344 h -0.00586 l 0.044922,0.048828 0.039063,0.044922 0.054687,0.060547 c 0.077369,0.085211 0.16886,0.1535087 0.2519531,0.2324218 0.118008,0.1132678 0.1540252,0.2904775 0.28125,0.3925782 -0.01251,0.066326 -0.010528,0.130404 -0.013672,0.1953125 C 1.0760251,6.4981071 0.21482717,5.4023029 0.10742187,4.0410156 0.065159,3.516944 0.16061051,3.0179478 0.32421875,2.5527344 Z M 6.9628906,4.1035156 c 0.023249,0.2832371 0.040827,0.5685726 0.00977,0.8398438 C 5.8871147,6.1919714 4.1207494,7.0091585 2.46875,6.6503906 2.3305761,6.540956 2.20726,6.415052 2.0800781,6.2929687 2.0568039,6.270299 2.0461641,6.2399051 2.0234375,6.2167969 2.1471902,6.2045879 2.2704726,6.2021081 2.3925781,6.1679687 3.9307392,5.7379124 5.4148987,5.0715572 6.78125,4.2480469 6.8483687,4.2075939 6.9027399,4.1524809 6.9628906,4.1035156 Z m 0.109375,1.1542969 C 6.8647661,5.7115619 6.5604254,6.1093551 6.1933594,6.4433594 6.1470059,6.3416512 6.0921109,6.24562 6.0136719,6.1621094 6.4055841,5.9042304 6.7604817,5.5968265 7.0722656,5.2578125 Z M 6.3925781,5.5859375 C 6.2057127,5.7426677 6.0469348,5.9272528 5.8398437,6.0585937 l -0.042969,0.027344 h -0.00195 l -0.054687,0.033203 C 5.6747844,6.1589099 5.59637,6.1681853 5.5292969,6.2050781 5.8438363,6.0306278 6.1184837,5.8150326 6.3925781,5.5859375 Z M 5.7578125,6.3164062 c 0.098023,0.082757 0.158593,0.1983012 0.203125,0.3242188 C 5.5248573,6.9749981 5.0133257,7.2140951 4.4472656,7.3242187 4.3686278,7.1979702 4.3389439,7.0582703 4.3242187,6.8964844 4.8261791,6.7760923 5.309756,6.5786791 5.7578125,6.3164062 Z M 4.453125,6.6386719 C 4.3617435,6.664427 4.2819708,6.7258577 4.1894531,6.7460937 l -0.080078,0.017578 h -0.00195 l -0.021484,0.00391 C 3.7713778,6.8283365 3.4514757,6.7794743 3.1328125,6.7695312 3.5808454,6.78339 4.0210995,6.7593281 4.453125,6.6386719 Z M 2.5371094,6.9570312 c 0.4997537,0.089901 1.0030876,0.087921 1.4960937,0.00195 0.014294,0.1453279 0.057875,0.2877346 0.1230469,0.4277343 -0.038341,0.00431 -0.075538,0.010248 -0.1152344,0.013672 -0.5333515,0.042369 -1.0421713,-0.046502 -1.515625,-0.2167969 -0.0022,-0.077247 0.00152,-0.1529297 0.011719,-0.2265625 z"
             id="path355" />
        </g>
      </g>
    </g>
  </g>
</svg>
